<?xml version="1.0" encoding="UTF-8"?>
<svg id="Layer_1" data-name="Layer 1" xmlns="http://www.w3.org/2000/svg" xmlns:xlink="http://www.w3.org/1999/xlink" viewBox="0 0 133.04 32.33">
  <defs>
    <style>
      .cls-1 {
        fill: none;
      }

      .cls-1, .cls-2, .cls-3, .cls-4 {
        stroke-width: 0px;
      }

      .cls-5 {
        font-family: ArialMT, Arial;
        font-size: 7.71px;
      }

      .cls-2 {
        fill: #fff;
      }

      .cls-3 {
        fill: #1e3e83;
      }

      .cls-6 {
        font-family: Arial-BoldMT, Arial;
        font-size: 8.91px;
        font-weight: 700;
      }

      .cls-7 {
        clip-path: url(#clippath);
      }

      .cls-4 {
        fill: #fd0;
      }
    </style>
    <clipPath id="clippath">
      <rect class="cls-1" y="0" width="133.04" height="32.33"/>
    </clipPath>
  </defs>
  <rect class="cls-2" y=".56" width="44.56" height="29.99"/>
  <rect class="cls-4" x="5.41" y="3.34" width="31" height="24"/>
  <path class="cls-3" d="M22.27,23.41l.35,1.08h1.13l-.92.66.34,1.07-.9-.66-.9.66.34-1.07-.92-.66h1.13s.35-1.08.35-1.08ZM17.6,22.16l.35,1.08h1.13l-.92.66.34,1.07-.9-.66-.9.66.34-1.07-.92-.66h1.13s.35-1.08.35-1.08ZM26.95,22.16l.34,1.08h1.13l-.92.66.34,1.07-.9-.66-.91.66.34-1.07-.92-.66h1.13s.35-1.08.35-1.08ZM14.17,18.73l.35,1.08h1.13l-.92.66.35,1.07-.9-.66-.9.66.34-1.07-.92-.66h1.13s.35-1.08.35-1.08ZM30.38,18.73l.35,1.08h1.13l-.92.66.34,1.07-.9-.66-.91.66.34-1.07-.92-.66h1.13s.35-1.08.35-1.08ZM12.91,14.04l.35,1.08h1.13l-.92.66.34,1.07-.9-.66-.9.66.34-1.07-.92-.66h1.13s.35-1.08.35-1.08ZM31.62,14.03l.35,1.08h1.13l-.92.66.34,1.07-.9-.66-.9.66.34-1.07-.92-.66h1.13s.35-1.08.35-1.08ZM14.17,9.37l.35,1.08h1.13l-.92.66.35,1.07-.9-.66-.9.66.34-1.07-.92-.66h1.13s.35-1.08.35-1.08ZM30.38,9.36l.35,1.08h1.13l-.92.66.34,1.07-.9-.66-.91.66.34-1.07-.92-.66h1.13s.35-1.08.35-1.08ZM26.96,5.94l.35,1.08h1.13l-.92.66.34,1.07-.9-.66-.91.66.34-1.07-.92-.66h1.13s.35-1.08.35-1.08ZM17.59,5.94l.35,1.08h1.13l-.92.66.34,1.07-.9-.66-.9.66.34-1.07-.92-.66h1.13l.35-1.08ZM22.27,4.68l.35,1.08h1.13l-.92.66.34,1.07-.91-.66-.9.66.34-1.07-.92-.66h1.13s.35-1.08.35-1.08ZM.86,29.83h42.85V1.27H.86v28.57Z"/>
  <g class="cls-7">
    <text class="cls-5" transform="translate(48.42 29.82)"><tspan x="0" y="0">NextGenerationEU</tspan></text>
    <text class="cls-6" transform="translate(48.35 7.65)"><tspan x="0" y="0">Funded by </tspan></text>
    <text class="cls-6" transform="translate(48.35 18.34)"><tspan x="0" y="0">the European Union</tspan></text>
  </g>
</svg>