<?xml version="1.0" encoding="UTF-8"?>
<svg id="Layer_2" data-name="Layer 2" xmlns="http://www.w3.org/2000/svg" viewBox="0 0 727.6 216.28">
  <defs>
    <style>
      .cls-1 {
        fill: #78579f;
      }

      .cls-1, .cls-2, .cls-3, .cls-4 {
        stroke-width: 0px;
      }

      .cls-2 {
        fill: #64a9dd;
      }

      .cls-3 {
        fill: #eb6666;
      }

      .cls-4 {
        fill: #f8b258;
      }
    </style>
  </defs>
  <g id="Livello_1" data-name="Livello 1">
    <g>
      <path class="cls-1" d="M430.41,14.6v8.12h18.79v7.25h-18.79v14.82h-8.06V7.36h28.82v7.25h-20.76Z"/>
      <path class="cls-1" d="M483.3,16.62v28.17h-7.96v-3.54c-1.69,2.56-4.85,4.2-8.5,4.2-6.1,0-10.46-4.52-10.46-10.9v-17.92h7.68v16.23c0,3.49,2.18,5.88,5.34,5.88,3.32,0,5.88-2.4,5.88-5.45l.05.16v-16.83h7.96Z"/>
      <path class="cls-1" d="M506.83,42.99c-1.63,1.47-4.2,2.45-6.48,2.45-4.96,0-8.44-3.54-8.44-8.61v-13.78h-3.87v-6.43h3.87v-7.74h7.63v7.74h6.1v6.43h-6.1v12.53c0,1.85,1.2,3.16,2.67,3.16,1.09,0,2.18-.38,2.73-.93l1.91,5.18Z"/>
      <path class="cls-1" d="M538.43,16.62v28.17h-7.96v-3.54c-1.69,2.56-4.85,4.2-8.5,4.2-6.1,0-10.46-4.52-10.46-10.9v-17.92h7.68v16.23c0,3.49,2.18,5.88,5.34,5.88,3.32,0,5.88-2.4,5.88-5.45l.05.16v-16.83h7.96Z"/>
      <path class="cls-1" d="M562.83,15.96v6.7c-5.89,0-9.64,3.38-9.64,8.66v13.46h-7.96v-28.17h7.96v5.23c1.85-3.65,5.34-5.88,9.64-5.88Z"/>
      <path class="cls-1" d="M587.18,35.9l5.07,5.18c-2.51,2.62-7.36,4.36-11.5,4.36-8.39,0-14.93-6.16-14.93-14.82s6.26-14.66,14.49-14.66c8.83,0,14,6.7,14,17.32h-20.32c.93,3.05,3.38,5.12,6.7,5.12,2.23,0,4.96-1.04,6.48-2.51ZM574.1,27.57h12.58c-.76-2.78-2.83-4.58-6.05-4.58-3,0-5.5,1.74-6.54,4.58Z"/>
      <path class="cls-1" d="M447.4,95.85h-16.67l-2.4,5.88h-8.99l15.25-37.43h8.99l15.25,37.43h-9.04l-2.4-5.88ZM444.63,89.04l-5.56-13.67-5.56,13.67h11.11Z"/>
      <path class="cls-1" d="M480.63,72.91v6.7c-5.89,0-9.64,3.38-9.64,8.66v13.46h-7.96v-28.17h7.96v5.23c1.85-3.65,5.34-5.88,9.64-5.88Z"/>
      <path class="cls-1" d="M501.93,99.93c-1.63,1.47-4.2,2.45-6.48,2.45-4.96,0-8.44-3.54-8.44-8.61v-13.78h-3.87v-6.43h3.87v-7.74h7.63v7.74h6.1v6.43h-6.1v12.53c0,1.85,1.2,3.16,2.67,3.16,1.09,0,2.18-.38,2.73-.93l1.91,5.18Z"/>
      <path class="cls-1" d="M506.5,65.34c0-2.23,1.91-4.25,4.36-4.25s4.25,2.02,4.25,4.25c0,2.4-1.91,4.36-4.25,4.36s-4.36-1.96-4.36-4.36ZM506.83,73.57h7.95v28.17h-7.95v-28.17Z"/>
      <path class="cls-1" d="M531.13,73.57h6.1v6.43h-6.1v21.74h-7.63v-21.74h-3.87v-6.43h3.87v-2.45c0-5.07,3.49-8.61,8.45-8.61,2.29,0,4.85.98,6.48,2.45l-1.91,4.85c-.54-.54-1.63-.93-2.72-.93-1.47,0-2.67,1.31-2.67,3.16v1.53Z"/>
      <path class="cls-1" d="M541.96,65.34c0-2.23,1.91-4.25,4.36-4.25s4.25,2.02,4.25,4.25c0,2.4-1.91,4.36-4.25,4.36s-4.36-1.96-4.36-4.36ZM542.29,73.57h7.96v28.17h-7.96v-28.17Z"/>
      <path class="cls-1" d="M555.58,87.62c0-8.01,7.08-14.71,15.42-14.71,4.58,0,8.33,1.85,11.06,4.79l-5.28,4.52c-1.42-1.58-3.65-2.62-5.83-2.62-4.14,0-7.63,3.65-7.63,7.95s3.49,8.12,7.68,8.12c2.18,0,4.47-1.09,5.94-2.72l5.29,4.47c-2.78,3.05-6.59,4.96-11.28,4.96-8.34,0-15.36-6.76-15.36-14.76Z"/>
      <path class="cls-1" d="M586.63,65.34c0-2.23,1.91-4.25,4.36-4.25s4.25,2.02,4.25,4.25c0,2.4-1.91,4.36-4.25,4.36s-4.36-1.96-4.36-4.36ZM586.96,73.57h7.95v28.17h-7.95v-28.17Z"/>
      <path class="cls-1" d="M626.78,84.9v16.83h-7.68v-2.83c-2.01,2.29-5.23,3.49-8.28,3.49-5.99,0-10.62-3.6-10.62-8.99s5.17-9.37,11.71-9.37c2.29,0,4.79.49,7.19,1.42v-.54c0-3-1.85-5.61-6.48-5.61-2.62,0-5.07.87-7.3,2.02l-2.67-5.28c3.98-2.02,7.84-3.11,11.77-3.11,7.36,0,12.37,4.63,12.37,11.99ZM619.1,92.85v-2.62c-1.8-.65-3.87-1.03-6.05-1.03-2.89,0-5.17,1.69-5.17,3.98s2.01,3.7,4.74,3.7c3.05,0,5.94-1.42,6.48-4.03Z"/>
      <path class="cls-1" d="M633.47,63.65h7.96v38.08h-7.96v-38.08Z"/>
      <path class="cls-1" d="M422.45,121.25h8.06v37.43h-8.06v-37.43Z"/>
      <path class="cls-1" d="M464.51,140.76v17.92h-7.68v-16.24c0-3.49-2.18-5.88-5.34-5.88-3.32,0-5.89,2.4-5.89,5.45l-.05-.16v16.83h-7.96v-28.17h7.96v3.54c1.69-2.56,4.85-4.2,8.5-4.2,6.1,0,10.46,4.52,10.46,10.9Z"/>
      <path class="cls-1" d="M487.93,156.88c-1.63,1.47-4.2,2.45-6.48,2.45-4.96,0-8.45-3.54-8.45-8.61v-13.78h-3.87v-6.43h3.87v-7.74h7.63v7.74h6.1v6.43h-6.1v12.53c0,1.85,1.2,3.16,2.67,3.16,1.09,0,2.18-.38,2.72-.93l1.91,5.18Z"/>
      <path class="cls-1" d="M512.66,149.8l5.07,5.18c-2.5,2.62-7.36,4.36-11.49,4.36-8.39,0-14.93-6.16-14.93-14.82s6.26-14.66,14.49-14.66c8.83,0,14,6.7,14,17.32h-20.32c.93,3.05,3.38,5.12,6.7,5.12,2.23,0,4.96-1.04,6.48-2.51ZM499.58,141.46h12.59c-.76-2.78-2.83-4.58-6.05-4.58-3,0-5.5,1.74-6.54,4.58Z"/>
      <path class="cls-1" d="M525.19,120.6h7.95v38.08h-7.95v-38.08Z"/>
      <path class="cls-1" d="M540.06,120.6h7.95v38.08h-7.95v-38.08Z"/>
      <path class="cls-1" d="M554.54,122.29c0-2.23,1.91-4.25,4.36-4.25s4.25,2.02,4.25,4.25c0,2.4-1.91,4.36-4.25,4.36s-4.36-1.96-4.36-4.36ZM554.87,130.51h7.96v28.17h-7.96v-28.17Z"/>
      <path class="cls-1" d="M598.13,130.51v25.17c0,7.25-6.26,12.37-15.15,12.37-4.96,0-9.64-1.58-12.42-3.76l2.78-5.61c1.85,1.63,5.12,2.67,8.39,2.67,5.12,0,8.39-2.34,8.39-5.99v-3.1c-2.23,2.72-5.61,4.36-9.32,4.36-7.08,0-12.48-5.56-12.48-13.4s5.39-13.35,12.48-13.35c3.81,0,7.41,1.8,9.32,4.47v-3.81h8.01ZM590.12,143.21c0-3.92-2.83-6.65-6.81-6.65s-6.81,2.72-6.81,6.65,2.83,6.7,6.81,6.7,6.81-2.78,6.81-6.7Z"/>
      <path class="cls-1" d="M624.87,149.8l5.07,5.18c-2.5,2.62-7.36,4.36-11.49,4.36-8.39,0-14.93-6.16-14.93-14.82s6.26-14.66,14.49-14.66c8.83,0,14,6.7,14,17.32h-20.32c.93,3.05,3.38,5.12,6.7,5.12,2.23,0,4.96-1.04,6.48-2.51ZM611.79,141.46h12.59c-.76-2.78-2.83-4.58-6.05-4.58-3,0-5.5,1.74-6.54,4.58Z"/>
      <path class="cls-1" d="M664.14,140.76v17.92h-7.68v-16.24c0-3.49-2.18-5.88-5.34-5.88-3.32,0-5.89,2.4-5.89,5.45l-.05-.16v16.83h-7.96v-28.17h7.96v3.54c1.69-2.56,4.85-4.2,8.5-4.2,6.1,0,10.46,4.52,10.46,10.9Z"/>
      <path class="cls-1" d="M669.26,144.57c0-8.01,7.08-14.71,15.42-14.71,4.57,0,8.33,1.85,11.06,4.79l-5.29,4.52c-1.42-1.58-3.65-2.62-5.83-2.62-4.14,0-7.63,3.65-7.63,7.95s3.49,8.12,7.68,8.12c2.18,0,4.47-1.09,5.94-2.72l5.28,4.47c-2.78,3.05-6.59,4.96-11.28,4.96-8.33,0-15.36-6.76-15.36-14.76Z"/>
      <path class="cls-1" d="M720.47,149.8l5.07,5.18c-2.5,2.62-7.36,4.36-11.49,4.36-8.39,0-14.93-6.16-14.93-14.82s6.26-14.66,14.49-14.66c8.83,0,14,6.7,14,17.32h-20.32c.93,3.05,3.38,5.12,6.7,5.12,2.23,0,4.96-1.04,6.48-2.51ZM707.39,141.46h12.59c-.76-2.78-2.83-4.58-6.05-4.58-3,0-5.5,1.74-6.54,4.58Z"/>
      <path class="cls-1" d="M444.84,215.63l-8.55-12.15h-5.94v12.15h-8.01v-37.43h16.83c8.12,0,14.11,5.23,14.11,12.64,0,5.56-3.38,9.91-8.5,11.71l9.21,13.08h-9.15ZM430.35,196.12h7.96c3.98,0,6.7-2.07,6.7-5.28s-2.73-5.29-6.7-5.29h-7.96v10.57Z"/>
      <path class="cls-1" d="M478.84,206.75l5.07,5.18c-2.5,2.62-7.36,4.36-11.49,4.36-8.39,0-14.93-6.16-14.93-14.82s6.26-14.66,14.49-14.66c8.83,0,14,6.7,14,17.32h-20.32c.93,3.05,3.38,5.12,6.7,5.12,2.23,0,4.96-1.04,6.48-2.51ZM465.76,198.41h12.59c-.76-2.78-2.83-4.58-6.05-4.58-3,0-5.5,1.74-6.54,4.58Z"/>
      <path class="cls-1" d="M489.24,212.03l3.43-5.5c2.5,1.8,5.67,3.16,9.42,3.16,2.13,0,3.65-.87,3.65-2.12,0-1.74-2.07-2.29-4.96-3.05-5.78-1.42-10.24-3-10.3-8.55-.05-5.34,4.36-9.15,11.01-9.15,4.03,0,8.01,1.42,11.11,3.49l-3.21,5.67c-2.56-1.58-5.5-2.5-7.9-2.5-1.96,0-3.32.71-3.32,1.69,0,1.52,1.14,1.96,4.96,3,4.85,1.25,10.24,2.89,10.24,9.04,0,5.56-4.52,9.1-11.44,9.1-4.52,0-9.32-1.53-12.69-4.25Z"/>
      <path class="cls-1" d="M538.48,206.75l5.07,5.18c-2.5,2.62-7.36,4.36-11.49,4.36-8.39,0-14.93-6.16-14.93-14.82s6.26-14.66,14.49-14.66c8.83,0,14,6.7,14,17.32h-20.32c.93,3.05,3.38,5.12,6.7,5.12,2.23,0,4.96-1.04,6.48-2.51ZM525.41,198.41h12.59c-.76-2.78-2.83-4.58-6.05-4.58-3,0-5.5,1.74-6.54,4.58Z"/>
      <path class="cls-1" d="M575.96,198.79v16.83h-7.68v-2.83c-2.01,2.29-5.23,3.49-8.28,3.49-5.99,0-10.62-3.6-10.62-8.99s5.17-9.37,11.71-9.37c2.29,0,4.79.49,7.19,1.42v-.54c0-3-1.85-5.61-6.48-5.61-2.62,0-5.07.87-7.3,2.02l-2.67-5.28c3.98-2.02,7.84-3.11,11.77-3.11,7.36,0,12.37,4.63,12.37,11.99ZM568.28,206.75v-2.62c-1.8-.65-3.87-1.03-6.05-1.03-2.89,0-5.17,1.69-5.17,3.98s2.01,3.7,4.74,3.7c3.05,0,5.94-1.42,6.48-4.03Z"/>
      <path class="cls-1" d="M600.25,186.81v6.7c-5.89,0-9.64,3.38-9.64,8.66v13.46h-7.96v-28.17h7.96v5.23c1.85-3.65,5.34-5.88,9.64-5.88Z"/>
      <path class="cls-1" d="M603.24,201.52c0-8.01,7.08-14.71,15.42-14.71,4.58,0,8.33,1.85,11.06,4.79l-5.28,4.52c-1.42-1.58-3.65-2.62-5.83-2.62-4.14,0-7.63,3.65-7.63,7.95s3.49,8.12,7.68,8.12c2.18,0,4.47-1.09,5.94-2.72l5.29,4.47c-2.78,3.05-6.59,4.96-11.28,4.96-8.34,0-15.36-6.76-15.36-14.76Z"/>
      <path class="cls-1" d="M661.42,197.7v17.92h-7.68v-16.24c0-3.49-2.18-5.88-5.34-5.88-3.32,0-5.88,2.4-5.88,5.45v16.67h-7.96v-38.08h7.96v13.35c1.74-2.45,4.85-4.09,8.44-4.09,6.1,0,10.46,4.52,10.46,10.9Z"/>
    </g>
    <g>
      <g>
        <path class="cls-2" d="M54.66,85.29h-16.02v41h16.02c11.3,0,20.5-9.19,20.5-20.5s-9.19-20.5-20.5-20.5Z"/>
        <path class="cls-2" d="M41,20.67v173.49c0,11.06-9.19,20.06-20.5,20.06S0,205.23,0,194.16V20.67C0,9.61,9.2.62,20.5.62s20.5,9,20.5,20.06Z"/>
        <path class="cls-2" d="M146.3.42s-3.46,4.57-10.3,16.03l-12.82,21.05H28.57v-18.57c-.08-10.93-3.99-15.38-8.43-18.57l126.16.05Z"/>
      </g>
      <g>
        <path class="cls-3" d="M192.36,30.07l-7.2,11.96-3.84,6.38-20.22,33.6-3.02,5.02-3.02,5.02-24.15,40.14-3.02,5.02-3.03,5.02-37.41,62.17c-1.32,2.16-2.99,4-4.94,5.47-2.11,1.59-4.55,2.75-7.2,3.39-.94.22-1.88.37-2.83.46-4.17.38-8.35-.6-11.98-2.86-.44-.28-.87-.56-1.28-.88-3.78-2.76-6.43-6.76-7.52-11.38-1.22-5.13-.38-10.44,2.37-14.95l13.52-22.47,25.17-41.82,4.14-6.88,13.03-21.64,4.12-6.86,20.39-33.89,3.02-5.02,3.02-5.02,18.48-30.72c2.75-4.52,6.91-7.66,11.69-8.85,10-2.29,21.89,4.12,24.06,14.65,1.22,5.14.38,10.44-2.37,14.95Z"/>
        <path class="cls-3" d="M131.76,127.46h32.81c11.3,0,20.5-9,20.5-20.06s-9.19-20.06-20.5-20.06l-8.75.09-24.06,40.02Z"/>
      </g>
      <path class="cls-1" d="M362.03,183.27c12.09,24.63-23.43,43.59-36.4,19.52l-38.81-69.8c-8.77-15.72,4.06-29.55,21-30.71,18-1.24,26.62-16.49,26.62-32.48s-12.43-32.84-28.2-32.72l-.38-.05-51.46.37c4.07-5.05,6.51-11.53,6.51-18.57S258.4,5.09,254.21,0c4.28.29,52.37.27,56.87.57,34.14,2.34,59.47,34.31,59.47,69.22,0,24.37-12.2,46.61-32.62,59.47l-4.53,2.86,28.63,51.16Z"/>
      <g>
        <path class="cls-4" d="M247.15,20.76c0,9.17-6.15,16.93-14.55,19.35-1.77.51-3.64.79-5.58.79s-3.64-.25-5.34-.73c-8.51-2.33-14.8-10.15-14.8-19.41s5.96-16.67,14.13-19.22t.02-.01c1.89-.59,3.9-.91,5.99-.91,1.93,0,3.81.28,5.58.8,8.4,2.42,14.55,10.17,14.55,19.34Z"/>
        <path class="cls-4" d="M247.18,75.23v116.88c0,11.88-9.19,21.55-20.5,21.55s-20.5-9.66-20.5-21.55v-116.88c0-11.88,9.2-21.55,20.5-21.55s20.5,9.66,20.5,21.55Z"/>
      </g>
    </g>
  </g>
</svg>