<?xml version="1.0" encoding="UTF-8"?>
<svg id="Layer_2" data-name="Layer 2" xmlns="http://www.w3.org/2000/svg" viewBox="0 0 102.8 38.55">
  <defs>
    <style>
      .cls-1 {
        fill: #5f4844;
      }

      .cls-1, .cls-2, .cls-3, .cls-4, .cls-5, .cls-6, .cls-7, .cls-8, .cls-9, .cls-10, .cls-11, .cls-12, .cls-13, .cls-14, .cls-15, .cls-16, .cls-17, .cls-18, .cls-19, .cls-20, .cls-21, .cls-22, .cls-23, .cls-24, .cls-25, .cls-26, .cls-27, .cls-28, .cls-29, .cls-30, .cls-31, .cls-32, .cls-33, .cls-34, .cls-35, .cls-36, .cls-37, .cls-38, .cls-39, .cls-40, .cls-41, .cls-42, .cls-43, .cls-44, .cls-45, .cls-46, .cls-47, .cls-48, .cls-49, .cls-50, .cls-51, .cls-52, .cls-53, .cls-54, .cls-55, .cls-56, .cls-57, .cls-58, .cls-59, .cls-60, .cls-61, .cls-62, .cls-63, .cls-64, .cls-65, .cls-66, .cls-67, .cls-68, .cls-69, .cls-70, .cls-71, .cls-72, .cls-73, .cls-74, .cls-75, .cls-76, .cls-77, .cls-78, .cls-79, .cls-80, .cls-81, .cls-82, .cls-83, .cls-84, .cls-85, .cls-86, .cls-87, .cls-88, .cls-89, .cls-90, .cls-91, .cls-92, .cls-93, .cls-94, .cls-95, .cls-96, .cls-97, .cls-98, .cls-99, .cls-100, .cls-101, .cls-102, .cls-103, .cls-104, .cls-105 {
        stroke-width: 0px;
      }

      .cls-2 {
        fill: #401928;
      }

      .cls-3 {
        fill: #96997a;
      }

      .cls-4 {
        fill: #465832;
      }

      .cls-5 {
        fill: #b2947a;
      }

      .cls-6 {
        fill: #544b43;
      }

      .cls-7 {
        fill: #203124;
      }

      .cls-8 {
        fill: #795f4b;
      }

      .cls-106 {
        letter-spacing: 0em;
      }

      .cls-9 {
        fill: #412126;
      }

      .cls-10 {
        fill: #304933;
      }

      .cls-107 {
        letter-spacing: -.01em;
      }

      .cls-11 {
        fill: #7b6055;
      }

      .cls-12 {
        fill: #55634d;
      }

      .cls-13 {
        fill: #606f3b;
      }

      .cls-14 {
        fill: #816951;
      }

      .cls-15 {
        fill: #465c3a;
      }

      .cls-16 {
        fill: #801719;
      }

      .cls-17 {
        fill: #21301e;
      }

      .cls-18 {
        fill: #a18765;
      }

      .cls-19 {
        fill: #a9272f;
      }

      .cls-20 {
        fill: #1d2c15;
      }

      .cls-21 {
        fill: #9a8972;
      }

      .cls-22 {
        fill: #5b080f;
      }

      .cls-23 {
        fill: #3f5533;
      }

      .cls-24 {
        fill: #25352c;
      }

      .cls-25 {
        fill: #4d5f3f;
      }

      .cls-26 {
        fill: #46332e;
      }

      .cls-27 {
        fill: #5a5253;
      }

      .cls-28 {
        fill: #bab0b2;
      }

      .cls-29 {
        fill: #5c6d4e;
      }

      .cls-30 {
        fill: #435338;
      }

      .cls-31 {
        fill: #5a6a3a;
      }

      .cls-32 {
        fill: #00120a;
      }

      .cls-33 {
        fill: #071605;
      }

      .cls-34 {
        fill: #48482f;
      }

      .cls-108 {
        font-family: Calibri-BoldItalic, Calibri;
        font-size: 10px;
        font-style: italic;
        font-weight: 700;
      }

      .cls-35 {
        fill: #526133;
      }

      .cls-36 {
        fill: #35322f;
      }

      .cls-37 {
        fill: #1d2e1d;
      }

      .cls-38 {
        fill: #3b522e;
      }

      .cls-39 {
        fill: #5e493b;
      }

      .cls-40 {
        fill: #020f00;
      }

      .cls-41 {
        fill: #152615;
      }

      .cls-42 {
        fill: #60453c;
      }

      .cls-43 {
        fill: #011105;
      }

      .cls-109 {
        letter-spacing: 0em;
      }

      .cls-44 {
        fill: #58252d;
      }

      .cls-45 {
        fill: #4b5f41;
      }

      .cls-46 {
        fill: #8c7257;
      }

      .cls-47 {
        fill: #fff;
      }

      .cls-48 {
        fill: #57694b;
      }

      .cls-49 {
        fill: #9a8a6c;
      }

      .cls-50 {
        fill: #5e4e2e;
      }

      .cls-51 {
        fill: #3c5539;
      }

      .cls-52 {
        fill: #626c3a;
      }

      .cls-53 {
        fill: #2e472b;
      }

      .cls-54 {
        fill: #3e513b;
      }

      .cls-55 {
        fill: #a99380;
      }

      .cls-56 {
        fill: #394f32;
      }

      .cls-57 {
        fill: #192f15;
      }

      .cls-58 {
        fill: #283e1c;
      }

      .cls-59 {
        fill: #304a2e;
      }

      .cls-60 {
        fill: #1e3017;
      }

      .cls-61 {
        fill: #1c321a;
      }

      .cls-62 {
        fill: #b88e74;
      }

      .cls-63 {
        fill: #b08f76;
      }

      .cls-64 {
        fill: #6d7443;
      }

      .cls-65 {
        fill: #241920;
      }

      .cls-66 {
        fill: #493024;
      }

      .cls-67 {
        fill: #95807b;
      }

      .cls-68 {
        fill: #938f66;
      }

      .cls-69 {
        fill: #425a40;
      }

      .cls-70 {
        fill: #23351c;
      }

      .cls-71 {
        fill: #40582e;
      }

      .cls-72 {
        fill: #24362c;
      }

      .cls-73 {
        fill: #445434;
      }

      .cls-74 {
        fill: #92775f;
      }

      .cls-75 {
        fill: #4f372e;
      }

      .cls-76 {
        fill: #838358;
      }

      .cls-77 {
        fill: #47342a;
      }

      .cls-78 {
        fill: #3d5236;
      }

      .cls-79 {
        fill: #d9d0d2;
      }

      .cls-80 {
        fill: #1d3417;
      }

      .cls-81 {
        fill: #172318;
      }

      .cls-110 {
        letter-spacing: 0em;
      }

      .cls-82 {
        fill: #645750;
      }

      .cls-83 {
        fill: #122710;
      }

      .cls-84 {
        fill: #0c2314;
      }

      .cls-85 {
        fill: #3c5538;
      }

      .cls-86 {
        fill: #6e584b;
      }

      .cls-87 {
        fill: #8a7778;
      }

      .cls-88 {
        fill: #897876;
      }

      .cls-89 {
        fill: #1b3419;
      }

      .cls-90 {
        fill: #825f4e;
      }

      .cls-91 {
        fill: #432d2d;
      }

      .cls-92 {
        fill: #092422;
      }

      .cls-93 {
        fill: #b72b2c;
      }

      .cls-94 {
        fill: #ae8d72;
      }

      .cls-95 {
        fill: #5b392f;
      }

      .cls-96 {
        fill: #07140a;
      }

      .cls-97 {
        fill: #292511;
      }

      .cls-98 {
        fill: #0f1e1d;
      }

      .cls-99 {
        fill: #a38a71;
      }

      .cls-100 {
        fill: #253a1a;
      }

      .cls-101 {
        fill: #575735;
      }

      .cls-102 {
        fill: #523527;
      }

      .cls-103 {
        fill: #514a4b;
      }

      .cls-104 {
        fill: #1f391b;
      }

      .cls-105 {
        fill: #231400;
      }
    </style>
  </defs>
  <g id="Layer_1-2" data-name="Layer 1">
    <text class="cls-108" transform="translate(42.71 12.93)"><tspan x="0" y="0">Mini</tspan><tspan class="cls-107" x="18.93" y="0">s</tspan><tspan class="cls-109" x="22.75" y="0">t</tspan><tspan x="26.13" y="0">ero</tspan><tspan x="0" y="9">dell’Universi</tspan><tspan class="cls-107" x="51.46" y="9">t</tspan><tspan x="54.81" y="9">à</tspan><tspan x="0" y="18">e della Ri</tspan><tspan class="cls-110" x="37.9" y="18">c</tspan><tspan x="41.94" y="18">er</tspan><tspan class="cls-106" x="50.38" y="18">c</tspan><tspan x="54.41" y="18">a</tspan></text>
    <g>
      <path class="cls-79" d="M27.05,16.73c0,5.64-4.57,10.22-10.22,10.22s-10.22-4.57-10.22-10.22,4.57-10.22,10.22-10.22,10.22,4.57,10.22,10.22"/>
      <path class="cls-30" d="M14.39,0c-.38.04-.68.09-1.01.29-.47.29-1.01.4-1.48.66-.32.17-.64.33-.93.57-.25.21-.54.38-.79.59-.36.28-.63.66-.94,1-.22.24-.42.48-.67.69-.26.21-.43.56-.74.71-.21.27-.45.53-.68.78-.28.18-.53.45-.47.82.03.23-.13.52-.16.66.24-.21.63-.39.35-.75.13-.33.65-.21.93-.41.35-.16.7-.33,1.03-.54.35-.13.65-.36.98-.53.31-.25.66-.43.99-.65,1.23-.81,2.33-1.65,3.27-2.79.2-.24.35-.52.38-.82l-.06-.29Z"/>
      <polygon class="cls-100" points="29.86 20.53 29.85 20.34 29.81 20.15 29.8 19.96 29.76 19.78 29.76 19.56 29.79 19.38 29.86 19.17 29.97 19.02 30.09 18.95 30.23 19 30.32 19.13 30.47 19.29 30.56 19.42 30.76 19.48 31 19.29 31.21 18.89 31.3 18.58 31.37 18.29 31.41 17.94 31.52 17.59 31.64 17.29 31.71 17.15 31.85 17.12 31.97 17.2 32.07 17.33 32.19 17.41 32.33 17.35 32.45 17.22 32.53 17.08 32.63 16.97 32.8 17.01 32.96 17 33.08 16.91 33.21 16.78 33.32 16.67 33.46 16.71 33.49 16.87 33.48 17.05 33.48 17.22 33.53 17.39 33.61 17.52 33.69 17.66 33.72 17.84 33.64 18.01 33.57 18.14 33.49 18.29 33.61 18.37 33.78 18.4 33.82 18.55 33.81 18.74 33.78 18.92 33.7 19.08 33.6 19.22 33.48 19.34 33.35 19.44 33.27 19.57 33.32 19.69 33.53 19.69 33.64 19.8 33.61 19.99 33.56 20.16 33.48 20.34 33.32 20.49 33.16 20.66 32.94 20.8 32.71 20.93 32.49 21.06 32.17 21.15 31.81 21.26 31.38 21.24 30.88 21.16 30.37 21 30.03 20.83 29.92 20.67 29.86 20.53"/>
      <path class="cls-53" d="M32.7,18.07l-.14.21-.14.14-.09.12-.06.13-.05.16-.05.15-.08.12-.07.13.04.12.09-.11.08-.13.06-.14.04-.16.06-.16.08-.15.08-.13.09-.1.09-.12v-.07ZM33.19,18.87h-.01s-.1.15-.1.15l-.12.09-.13.07-.12.08-.08.12-.11.19.09.03.09-.08.05-.15.08-.12.13-.08.11-.09.09-.1.02-.12Z"/>
      <polygon class="cls-96" points="31.77 17.11 31.71 17.14 31.64 17.29 31.52 17.59 31.41 17.94 31.36 18.29 31.3 18.58 31.21 18.89 31 19.29 30.77 19.48 30.56 19.41 30.47 19.29 30.4 19.23 30.35 19.31 30.28 19.47 30.19 19.6 30.06 19.72 29.89 19.82 29.79 19.91 29.8 19.97 29.81 20.15 29.85 20.34 29.86 20.53 29.92 20.67 30.04 20.83 30.37 21 30.88 21.16 31.38 21.24 31.81 21.26 32.17 21.15 32.49 21.06 32.71 20.93 32.94 20.8 33.16 20.66 33.32 20.49 33.48 20.34 33.56 20.16 33.61 19.99 33.64 19.79 33.62 19.76 33.53 19.81 33.43 19.93 33.3 20 33.13 20.06 33.01 19.95 32.93 19.82 32.85 19.66 32.78 19.52 32.68 19.41 32.53 19.46 32.41 19.55 32.17 19.63 32.05 19.51 32.02 19.29 32.02 19.09 32.03 18.91 32.06 18.72 32.08 18.5 32.11 18.32 32.14 18.15 32.15 17.97 32.16 17.78 32.17 17.6 32.15 17.43 32.14 17.39 32.07 17.33 31.97 17.2 31.85 17.12 31.77 17.11"/>
      <polygon class="cls-14" points="28.84 9.21 28.65 9.4 28.44 9.59 28.57 9.87 28.67 10.16 28.78 10.45 28.91 10.71 28.99 11.02 29.12 11.31 29.25 11.6 29.35 11.81 29.46 12.17 29.56 12.46 29.69 12.72 29.75 12.93 29.79 13.02 29.82 13.09 29.84 13.17 29.85 13.26 29.85 13.36 29.83 13.43 29.79 13.48 29.73 13.57 29.72 13.64 29.74 13.71 29.77 13.79 29.9 13.84 29.99 13.87 30.02 13.94 30.04 14.02 30.04 14.03 30.06 14.08 30.09 14.17 30.11 14.23 30.13 14.31 30.13 14.36 30.14 14.39 30.27 14.65 30.35 14.97 30.42 15.28 30.45 15.3 30.42 15.56 30.32 15.68 30.18 15.73 30.07 15.7 30.04 15.73 30.02 15.84 29.99 15.96 29.97 16.06 29.95 16.14 30.01 16.2 30.09 16.28 30.16 16.35 30.22 16.41 30.26 16.48 30.28 16.5 30.37 16.63 30.51 16.89 30.58 17.21 30.68 17.5 30.74 17.84 30.77 18.2 30.68 18.51 30.64 18.85 30.63 18.89 30.63 18.91 30.61 18.99 30.59 19.08 30.57 19.16 30.55 19.24 30.53 19.33 30.5 19.42 30.47 19.5 30.47 19.5 30.42 19.59 30.4 19.69 30.4 19.69 30.3 19.98 30.22 20.29 30.16 20.63 30.09 20.94 29.98 21.23 29.85 21.49 29.69 21.73 29.83 22.01 29.95 22.3 30.11 22.54 30.28 22.59 30.37 22.46 30.53 22.19 30.68 21.96 30.82 21.7 30.95 21.44 31.08 21.18 31.18 20.89 31.31 20.63 31.39 20.32 31.47 20 31.55 19.69 31.63 19.38 31.68 19.17 31.73 18.83 31.78 18.49 31.81 18.12 31.84 17.76 31.85 17.71 31.85 17.69 31.86 17.6 31.87 17.51 31.88 17.42 31.87 17.31 31.87 17.21 31.86 17.1 31.85 17 31.84 16.9 31.84 16.81 31.85 16.72 31.88 16.65 31.91 16.58 31.92 16.57 31.97 16.32 31.84 16.06 31.5 16.01 31.37 15.75 31.29 15.43 31.26 15.07 31.26 14.68 31.22 14.62 31.05 14.52 31.01 14.44 30.92 14.26 30.92 14.23 30.92 14.22 30.9 13.99 30.9 13.99 30.87 13.92 30.76 13.83 30.7 13.62 30.68 13.52 30.66 13.42 30.64 13.34 30.63 13.24 30.61 13.15 30.59 13.06 30.56 12.97 30.55 12.91 30.51 12.69 30.37 12.43 30.22 12.2 30.09 11.93 29.95 11.67 29.85 11.39 29.72 11.12 29.69 11.1 29.56 10.47 29.43 10.18 29.3 9.85 29.15 9.61 29.02 9.35 28.86 9.22 28.84 9.21"/>
      <path class="cls-28" d="M16.46,3.52l-.36.02-.36.47-.02.87c-.51.05-1.02.13-1.51.24l-.29-.82-.45-.34h-.03c-.17.03-.47.14-.7.21s-.46.15-.69.24l-.19.56.25.84c-.48.21-.94.44-1.38.71h.02s-.53-.71-.53-.71l-.43-.2-.14.03-.6.42-.58.44v.59s.49.72.49.72l.02-.02c-.4.35-.77.72-1.12,1.12l.02-.02-.72-.49-.31-.08-.28.09-.45.58-.41.6.17.57.69.53h.01c-.27.43-.5.88-.71,1.36l-.83-.25h-.15s-.41.19-.41.19c-.08.16-.17.46-.24.69-.08.23-.15.46-.21.7l.34.48.82.29c-.11.49-.19.99-.24,1.51l-.87.02-.47.35c-.02.18-.02.49-.02.73,0,.24,0,.48.02.73l.47.36.87.02c.05.51.13,1.02.24,1.51l-.82.29-.34.48c.03.17.13.47.21.7.07.23.15.46.24.69l.56.19.83-.25c.21.48.44.94.71,1.38h-.01s-.69.51-.69.51l-.17.56.42.6.44.58h.59s.72-.49.72-.49l-.02-.02c.35.4.72.77,1.12,1.12l-.02-.02-.49.72v.59s.59.44.59.44l.6.41.57-.17.53-.69h-.02c.44.25.9.49,1.38.69l-.25.83.19.56c.16.08.46.17.69.24.23.08.46.15.7.21l.48-.34.29-.82c.49.11,1,.19,1.51.24l.02.87.36.47c.24.02.49.02.73.02h.15c.21,0,.44,0,.58-.02l.36-.47.02-.87c.51-.05,1.01-.13,1.51-.24l.29.82.48.34c.24-.05.47-.13.7-.21.23-.08.53-.17.69-.24l.19-.56-.25-.83c.48-.2.94-.44,1.38-.71h-.02s.53.71.53.71l.56.17.6-.41.58-.44v-.59s-.49-.72-.49-.72l-.02.02c.4-.35.77-.72,1.12-1.12l-.02.02.72.5h.59s.44-.59.44-.59l.41-.6-.17-.56-.69-.53h-.01c.27-.43.5-.88.71-1.36l.83.25.56-.19c.1-.22.17-.45.24-.69.07-.23.17-.53.2-.7l-.34-.48-.82-.29c.11-.49.19-1,.23-1.51l.87-.02.47-.36c.02-.24.02-.48.02-.73,0-.24,0-.56-.02-.73l-.47-.35-.87-.02c-.05-.51-.13-1.02-.23-1.51l.82-.29.34-.48c-.05-.24-.13-.46-.2-.7-.08-.23-.17-.53-.24-.69l-.49-.2h-.08s-.83.26-.83.26c-.21-.48-.44-.94-.71-1.38h.01s.69-.51.69-.51l.17-.57-.41-.6-.44-.58-.29-.09-.31.08-.72.49.02.02c-.35-.4-.72-.77-1.12-1.12l.02.02.5-.72v-.59s-.59-.44-.59-.44l-.6-.42-.14-.03-.43.2-.53.69h.02c-.44-.25-.9-.49-1.38-.69l.25-.84-.19-.56c-.22-.1-.45-.17-.69-.24-.23-.07-.53-.18-.7-.21h-.07s-.42.34-.42.34l-.29.82c-.49-.11-.99-.19-1.51-.24l-.02-.87-.36-.47c-.14-.02-.38-.02-.59-.02h-.5ZM15.07,7.47l-.33,6.37-6.17-1.64c1.33-2.42,3.7-4.2,6.51-4.73M18.58,7.47c2.81.53,5.17,2.31,6.51,4.73l-6.17,1.64-.34-6.37M7.48,15.52l5.96,2.3-3.49,5.36c-1.59-1.69-2.55-3.96-2.55-6.45,0-.41.02-.82.08-1.22M26.18,15.52c.05.4.08.8.08,1.22,0,2.49-.97,4.76-2.56,6.45l-3.48-5.36,5.96-2.3M16.83,20.28l4.03,4.97c-1.22.58-2.59.9-4.03.9s-2.8-.33-4.03-.9l4.03-4.97"/>
      <polygon class="cls-66" points="29.81 11.29 29.64 11.36 29.35 11.52 29.25 11.59 29.25 11.6 29.35 11.81 29.46 12.17 29.56 12.46 29.69 12.72 29.75 12.93 29.79 13.02 29.82 13.09 29.84 13.17 29.85 13.26 29.85 13.36 29.83 13.43 29.79 13.48 29.73 13.57 29.72 13.64 29.74 13.71 29.77 13.79 29.9 13.84 29.99 13.87 30.02 13.94 30.04 14.02 30.04 14.03 30.06 14.08 30.09 14.17 30.11 14.23 30.13 14.31 30.13 14.36 30.14 14.39 30.27 14.65 30.34 14.92 30.44 14.87 30.64 14.86 30.84 14.86 31.03 14.87 31.1 14.9 31.14 15.02 31.14 15.21 31.13 15.4 31.17 15.56 31.22 15.72 31.26 15.9 31.34 16.02 31.47 16.06 31.53 16.01 31.5 16.01 31.37 15.75 31.29 15.43 31.26 15.07 31.26 14.67 31.22 14.62 31.05 14.52 31.01 14.44 30.92 14.26 30.92 14.23 30.92 14.22 30.9 13.99 30.9 13.99 30.87 13.92 30.76 13.83 30.7 13.62 30.68 13.52 30.66 13.42 30.64 13.34 30.63 13.24 30.61 13.15 30.59 13.06 30.56 12.97 30.55 12.91 30.51 12.69 30.37 12.43 30.22 12.19 30.09 11.93 29.95 11.67 29.85 11.39 29.81 11.29"/>
      <polygon class="cls-21" points="30.18 22.53 30.06 22.56 29.85 22.75 29.71 22.93 29.63 23.11 29.62 23.29 29.62 23.49 29.62 23.55 29.63 23.55 29.68 23.71 29.64 23.87 29.54 23.96 29.42 24.04 29.26 24.09 29.14 24.12 29.09 24.14 28.99 24.23 28.95 24.39 28.91 24.55 28.87 24.69 28.83 24.85 28.77 24.98 28.66 25.09 28.58 25.21 28.51 25.33 28.5 25.34 28.49 25.35 28.49 25.36 28.48 25.38 28.45 25.44 28.45 25.45 28.44 25.48 28.43 25.48 28.42 25.51 28.41 25.51 28.3 25.59 28.26 25.44 28.21 25.29 28.1 25.21 28.05 25.35 28.02 25.53 28.01 25.71 27.99 25.88 27.99 26.07 27.93 26.22 27.91 26.25 27.92 26.26 27.9 26.28 27.9 26.29 27.87 26.35 27.79 26.48 27.78 26.5 27.75 26.54 27.68 26.67 27.61 26.79 27.5 26.9 27.45 26.94 27.45 26.95 27.36 27.07 27.28 27.18 27.15 27.28 27.03 27.4 27.03 27.41 26.96 27.5 26.94 27.51 26.93 27.52 26.72 27.68 26.63 27.81 26.52 27.92 26.35 28.11 26.17 28.34 25.95 28.71 25.87 29.15 26.01 29.32 26.33 29.39 26.48 29.29 26.6 29.12 26.72 28.97 26.77 28.93 26.82 28.83 26.9 28.71 26.99 28.61 27.08 28.49 27.2 28.39 27.33 28.26 27.42 28.12 27.52 28.01 27.59 27.89 27.68 27.76 27.79 27.66 27.87 27.54 27.96 27.43 28.06 27.33 28.12 27.27 28.13 27.26 28.13 27.25 28.22 27.12 28.32 26.98 28.4 26.86 28.48 26.74 28.56 26.62 28.65 26.49 28.74 26.35 28.85 26.18 28.92 26.05 29 25.92 29 25.72 29.04 25.56 29.12 25.42 29.21 25.3 29.3 25.2 29.42 25.11 29.55 24.99 29.71 24.79 29.83 24.62 30.01 24.38 30.2 24.1 30.44 23.79 30.58 23.47 30.65 23.11 30.6 22.76 30.39 22.55 30.18 22.53"/>
      <path class="cls-49" d="M31.16,17.37l-.13.02.04.13.05.14.13.04.08-.12.07-.14-.13-.06h-.11ZM31.1,18.46l-.06.18-.04.15v.19s-.04.17-.04.17l-.05.16-.05.14-.04.16-.07.17-.07.14-.05.2-.04.16-.07.14-.07.16-.04.17.04.11.15-.08.06-.17.09-.19.04-.18.07-.17.08-.17.03-.17.04-.17.08-.18.03-.19.03-.18.03-.17v-.2l-.08-.16Z"/>
      <polygon class="cls-34" points="29.29 24.19 29.26 24.21 29.18 24.34 28.99 24.34 28.95 24.33 28.95 24.39 28.94 24.48 28.95 24.48 29.07 24.56 29.23 24.61 29.38 24.57 29.5 24.48 29.51 24.32 29.41 24.23 29.29 24.19"/>
      <polygon class="cls-77" points="28.95 24.43 28.91 24.55 28.87 24.69 28.83 24.85 28.77 24.97 28.74 25.02 28.82 25.08 28.95 25.23 29.03 25.38 29.06 25.52 29.12 25.42 29.21 25.3 29.3 25.2 29.41 25.12 29.38 25.06 29.29 24.88 29.21 24.76 29.12 24.62 28.99 24.46 28.95 24.43"/>
      <polygon class="cls-90" points="29 25.69 28.9 25.77 28.83 25.9 28.7 25.97 28.62 26.09 28.55 26.22 28.43 26.3 28.27 26.26 28.21 26.36 28.21 26.56 28.18 26.73 28.1 26.84 28.02 26.96 27.93 27.08 27.8 27.18 27.7 27.3 27.59 27.39 27.49 27.5 27.4 27.6 27.27 27.71 27.17 27.81 27.03 27.89 26.9 27.97 26.73 27.94 26.59 27.83 26.52 27.91 26.35 28.11 26.17 28.35 25.95 28.71 25.87 29.16 26.01 29.32 26.33 29.39 26.48 29.29 26.6 29.11 26.72 28.97 26.77 28.93 26.82 28.83 26.9 28.71 26.99 28.61 27.08 28.49 27.2 28.38 27.33 28.26 27.42 28.12 27.52 28.01 27.59 27.89 27.68 27.76 27.79 27.65 27.87 27.54 27.96 27.43 28.06 27.33 28.12 27.27 28.13 27.26 28.13 27.25 28.22 27.12 28.32 26.98 28.4 26.86 28.48 26.74 28.56 26.62 28.65 26.49 28.74 26.35 28.85 26.18 28.92 26.05 29 25.92 29 25.72 29 25.69"/>
      <polygon class="cls-37" points="28 25.59 28.06 25.76 28.04 25.93 28.04 26.13 28.13 26.23 28.27 26.28 28.45 26.27 28.53 26.15 28.43 26.06 28.32 25.97 28.27 25.81 28.28 25.63 28.28 25.43 28.27 25.25 28.19 25.08 28.02 25.02 27.95 25.15 27.95 25.34 27.97 25.53 28 25.59"/>
      <polygon class="cls-26" points="28.07 27.32 27.95 27.39 27.84 27.5 27.73 27.59 27.62 27.71 27.51 27.82 27.44 27.94 27.34 28.06 27.24 28.16 27.15 28.27 27.01 28.32 26.85 28.28 26.69 28.16 26.59 28.26 26.54 28.43 26.46 28.66 26.44 28.91 26.44 29.13 26.47 29.3 26.48 29.29 26.6 29.11 26.72 28.97 26.77 28.93 26.82 28.83 26.9 28.71 26.99 28.61 27.08 28.49 27.2 28.38 27.33 28.26 27.42 28.13 27.51 28.01 27.59 27.89 27.68 27.76 27.79 27.65 27.87 27.54 27.96 27.43 28.06 27.33 28.07 27.32"/>
      <path class="cls-88" d="M18.87,34.43c-.26,0-.54.13-.71.32.11.22.4.34.59.5.28.12.52.32.73.53.25.18.51.33.75.5.2.19.44.35.58.59,0,.26.11.52.3.7.19.13.5-.02.56.29.18.15.21.48.47.5.27.04.46-.06.73-.11.25-.04.36-.32.6-.42l.64-.25.07-.44c-.22-.19-.46-.13-.69-.2-.29-.09-.55-.22-.82-.38-.23-.14-.45-.29-.67-.44l-.59-.51c-.21-.19-.37-.44-.62-.6-.22-.12-.47-.22-.71-.3-.25-.11-.52-.16-.77-.27l-.45-.02Z"/>
      <path class="cls-42" d="M20.25,36.01h-.01s-.12.19-.12.19l.12.08c.2.19.44.34.58.59,0,.26.11.51.3.7.19.13.5-.02.56.29.18.15.21.48.47.49h.02s-.06-.08-.06-.08l-.1-.09v-.16s.04-.18.04-.18h.02s.16-.11.16-.11l.13-.11.1-.14.03-.11h-.18s-.18-.03-.18-.03l-.15-.05-.12-.1-.11-.13-.17-.12-.17-.12-.17-.13-.17-.13-.15-.12-.17-.15-.19-.12-.21-.14-.09-.05Z"/>
      <polygon class="cls-11" points="21.2 36.94 21.07 36.86 20.95 36.86 20.91 36.96 20.94 37.07 20.98 37.17 21.04 37.25 21.12 37.32 21.21 37.37 21.35 37.39 21.47 37.36 21.49 37.25 21.45 37.15 21.35 37.07 21.28 37 21.2 36.94"/>
      <polygon class="cls-62" points="21.39 37.11 21.26 37.05 21.15 37.07 21.1 37.16 21.12 37.28 21.2 37.35 21.3 37.39 21.43 37.38 21.49 37.3 21.46 37.17 21.39 37.11"/>
      <polygon class="cls-18" points="22.24 37.36 22.12 37.41 22.04 37.49 21.98 37.57 21.94 37.66 21.9 37.77 22 37.77 22.07 37.71 22.15 37.63 22.22 37.57 22.31 37.5 22.39 37.44 22.44 37.38 22.33 37.35 22.24 37.36"/>
      <path class="cls-18" d="M24,37.04l-.1.07-.12.04-.13.04-.11.06-.08.07-.08.09-.11.04h-.14s-.14,0-.14,0h-.22s-.12.04-.12.04l-.1.06-.08.05-.08.05-.08.06-.09.05-.08.05-.08.05-.06.07-.05.11-.04.14.25.16c.28.05.46-.06.73-.11.25-.04.36-.32.6-.41l.64-.25.07-.44-.19-.11Z"/>
      <path class="cls-18" d="M21.87,36.01l-.15.05-.08.05.07.13.09.09.11.1.09.09.11.08.12.08.12.09.12.09.12.07.11.06.1.06.15.06.13.07.11.04.14-.04.12-.06.12-.06.11-.05.04-.02-.21-.04c-.29-.09-.56-.22-.82-.38-.23-.14-.45-.29-.67-.44l-.15-.11Z"/>
      <polygon class="cls-74" points="14.97 34.36 14.84 34.36 14.64 34.41 14.37 34.56 14.03 34.81 13.74 35.03 13.48 35.19 13.29 35.28 13.14 35.41 13.06 35.53 12.94 35.6 12.83 35.68 12.7 35.75 12.57 35.81 12.43 35.88 12.36 35.92 12.36 35.92 12.31 35.96 12.27 35.95 12.12 35.97 11.93 35.97 11.76 36 11.6 36.04 11.47 36.1 11.39 36.22 11.38 36.27 11.38 36.36 11.37 36.54 11.21 36.62 11.04 36.75 10.87 36.87 10.71 36.99 10.54 37.07 10.5 37.08 10.32 37.13 10.18 37.19 10.04 37.24 9.95 37.35 9.88 37.47 9.84 37.63 9.83 37.73 9.93 37.73 10.12 37.76 10.31 37.82 10.44 37.93 10.57 38.05 10.72 38.2 10.87 38.32 11.08 38.43 11.26 38.49 11.47 38.53 11.68 38.55 11.91 38.55 12.08 38.52 12.2 38.43 12.23 38.24 12.34 38.1 12.46 37.99 12.57 37.89 12.76 37.89 12.92 37.85 13.08 37.75 13.2 37.67 13.32 37.56 13.26 37.41 13.18 37.28 13.17 37.16 13.31 37.08 13.43 36.99 13.55 36.89 13.66 36.78 13.78 36.7 13.95 36.68 14.12 36.65 14.3 36.6 14.33 36.43 14.35 36.24 14.43 36.11 14.56 36 14.72 35.85 14.86 35.75 15.04 35.67 15.2 35.57 15.36 35.45 15.51 35.3 15.66 35.17 15.79 35.03 15.91 34.92 16.04 34.85 16.17 34.76 16.3 34.62 16.4 34.47 16.09 34.46 15.79 34.4 15.42 34.38 15.1 34.36 14.97 34.36"/>
      <polygon class="cls-94" points="10.08 37.22 10.04 37.24 9.95 37.35 9.88 37.47 9.84 37.63 9.83 37.73 9.93 37.73 10.12 37.76 10.31 37.82 10.44 37.93 10.57 38.05 10.72 38.2 10.87 38.32 11.08 38.42 11.26 38.49 11.47 38.53 11.68 38.55 11.91 38.55 12.08 38.52 12.2 38.42 12.23 38.24 12.34 38.1 12.39 38.05 12.28 37.89 12.15 37.75 11.93 37.65 11.76 37.57 11.53 37.52 11.27 37.51 11.07 37.5 10.88 37.47 10.7 37.43 10.5 37.39 10.36 37.34 10.21 37.29 10.09 37.22 10.08 37.22"/>
      <polygon class="cls-91" points="14.97 34.36 14.84 34.36 14.64 34.41 14.37 34.56 14.03 34.81 13.74 35.03 13.48 35.19 13.29 35.28 13.14 35.41 13.06 35.53 12.94 35.6 12.83 35.68 12.8 35.69 12.9 35.68 13.08 35.64 13.25 35.62 13.41 35.59 13.59 35.55 13.78 35.54 13.95 35.51 14.16 35.51 14.34 35.53 14.5 35.58 14.6 35.67 14.65 35.83 14.58 35.96 14.43 36.04 14.29 36.09 14.17 36.18 14.08 36.3 13.95 36.4 13.82 36.46 13.74 36.59 13.59 36.62 13.44 36.69 13.29 36.78 13.13 36.87 12.99 36.99 12.84 37.08 12.99 37.16 13.11 37.22 13.08 37.38 12.99 37.48 12.88 37.57 12.75 37.64 12.6 37.61 12.5 37.51 12.38 37.45 12.29 37.55 12.24 37.69 12.1 37.69 11.95 37.6 11.78 37.51 11.65 37.45 11.48 37.42 11.27 37.42 11.03 37.43 10.83 37.43 10.61 37.38 10.45 37.33 10.3 37.26 10.18 37.19 10.04 37.24 9.98 37.28 9.98 37.29 9.95 37.35 9.88 37.47 9.87 37.49 9.84 37.63 9.83 37.67 9.88 37.63 9.95 37.5 10.02 37.36 10.15 37.26 10.31 37.31 10.46 37.35 10.61 37.41 10.75 37.46 10.91 37.5 11.09 37.52 11.26 37.55 11.47 37.57 11.63 37.63 11.77 37.69 11.9 37.77 12.02 37.88 12.12 37.98 12.2 38.1 12.25 38.21 12.28 38.17 12.3 38.15 12.34 38.1 12.37 38.07 12.46 37.99 12.57 37.89 12.76 37.89 12.85 37.88 12.92 37.85 13.08 37.75 13.2 37.67 13.32 37.56 13.26 37.41 13.18 37.28 13.15 37.2 13.17 37.16 13.19 37.14 13.31 37.08 13.43 36.99 13.49 36.94 13.55 36.89 13.66 36.78 13.78 36.7 13.82 36.69 13.86 36.68 13.95 36.68 14.12 36.65 14.3 36.6 14.32 36.59 14.33 36.43 14.35 36.24 14.43 36.11 14.56 36 14.68 35.89 14.72 35.85 14.86 35.75 15.04 35.67 15.2 35.57 15.36 35.45 15.51 35.3 15.59 35.24 15.66 35.17 15.72 35.11 15.79 35.03 15.85 34.97 15.91 34.92 16.04 34.85 16.17 34.76 16.3 34.62 16.36 34.55 16.29 34.44 16.24 34.44 16.18 34.45 16.09 34.46 16.02 34.44 15.79 34.4 15.42 34.38 15.18 34.37 15.1 34.36 14.97 34.36"/>
      <path class="cls-1" d="M15.36,35.09c-.23,0-.45,0-.64.13l-.45.19-.26.05-.04.02.15.12.02.15-.08.16-.15.14-.16.12-.14.12-.17.11-.15.12-.13.12-.12.12-.13.09-.1.1-.07.13-.15.1-.07.14.09.11.1-.09.11-.14.09-.11.13-.06.17-.03.16.02.06-.05.12-.1.12-.11.12-.08.17-.03.17-.03.18-.05.03-.17.03-.18.08-.13.13-.12.16-.15.15-.11.17-.08.17-.11.16-.12.15-.14.14-.13.05-.06-.35-.02ZM12.71,35.75h0l-.06.03h0s-.06.05-.06.05l-.11.04-.03.02-.12.08-.07.13-.08.12-.11.1-.14.05h-.2l-.15-.05-.12-.08-.05-.04v.02s-.03.05-.03.05v.09s0,.18,0,.18h0s.13.06.13.06h.2l.17-.02.18-.07.13-.09.11-.12.09-.13.06-.15.07-.13.1-.09.1-.07ZM12.33,37.09l-.16.12-.15.09v.12l.15-.04.12-.12.09-.12-.05-.05Z"/>
      <path class="cls-5" d="M13.9,35.84h-.1s-.17.05-.17.05l-.21.08-.17.1-.16.12-.15.16-.1.16-.12.12-.1.13v.16s.14-.12.14-.12l.16-.12.14-.12.12-.11.13-.06.16-.05.14-.08.14-.07.13-.07.09-.1v-.16s-.09-.03-.09-.03ZM12.27,35.95l-.15.02h-.19l-.17.03-.15.04-.1.03v.11s.13.08.13.08l.16.05.17-.02.12-.08.13-.08.06-.13v-.04s-.01,0-.01,0ZM13,37.15l-.11.02-.14.12-.04.16v.14s.16-.05.16-.05l.09-.12.12-.09v-.13s-.07-.05-.07-.05Z"/>
      <path class="cls-93" d="M10.78,29.39l-.18.06-.12.08-.12.08-.03.17-.03.17.03.17.16.2.5.34c.26.15.55.27.82.41.21.1.42.24.64.31l.09.03.25.13.27.14.5.14.64.05h.3s.23.01.23.01l.08-.12-.06-.15c-.32-.28-.56-.66-.86-.95l-.1-.13-.15-.06-.13-.08-.17-.07-.21-.08-.17-.09c-.63-.22-1.28-.41-1.88-.71l-.22-.02-.08-.04Z"/>
      <path class="cls-93" d="M19.22,31.94s.61-.95.89-1.32l.24-.16c.68-.3,1.77-.74,2.49-1.04l.39-.03.39.17.12.19c.13.52.29,1.36.4,1.89l.13.24.27.32v.21s-.69.66-.69.66l-4.62-1.12Z"/>
      <path class="cls-16" d="M23.51,29.51l.04.13-.05.15-.29.17c-.75.37-1.47.79-2.19,1.21-.5.3-.83.53-.88.56l-.21.37,3.92.95.68-.66v-.2s-.26-.32-.26-.32l-.14-.25c-.1-.53-.27-1.36-.39-1.88l-.12-.19-.11-.05Z"/>
      <path class="cls-16" d="M9.22,32.41c.33-.28.48-.54.57-.94l.07-.16.03-.17c.22-.36.38-.71.39-1.15l.02-.17v-.16s.15.12.15.12l.15.1.14.12c.43.27.86.57,1.33.74l.18.09.14.09c.42.23.87.41,1.29.63l.17.08.46.21c-1.34.38-3.34.62-4.67,1.02l-.2-.27-.13-.07-.09-.12Z"/>
      <path class="cls-16" d="M19.61,31.7c.12-.18.36-.56.61-.85l.42-.29c.7-.3,2.38-.94,2.38-.94l.27.06c-.83.5-2.48,1.44-3.37,1.96-.3.18-.35.14-.29.06"/>
      <polygon class="cls-66" points="30.47 15.51 30.43 15.56 30.32 15.68 30.18 15.73 30.07 15.7 30.03 15.73 30.02 15.84 29.99 15.96 29.97 16.06 29.95 16.14 30.01 16.2 30.09 16.28 30.16 16.35 30.22 16.41 30.26 16.48 30.29 16.5 30.37 16.63 30.51 16.89 30.58 17.21 30.69 17.5 30.74 17.84 30.75 17.93 30.93 17.91 31.1 17.89 31.19 17.78 31.13 17.61 31.04 17.47 30.96 17.3 30.89 17.16 30.83 17 30.75 16.84 30.63 16.69 30.65 16.53 30.71 16.39 30.79 16.22 30.82 16.06 30.78 15.89 30.67 15.79 30.56 15.62 30.47 15.51"/>
      <polygon class="cls-66" points="31.7 16.02 31.63 16.15 31.55 16.27 31.49 16.32 31.36 16.32 31.39 16.51 31.44 16.65 31.52 16.79 31.57 16.94 31.63 17.08 31.64 17.26 31.64 17.46 31.61 17.64 31.53 17.76 31.49 17.9 31.46 18.07 31.44 18.28 31.42 18.46 31.4 18.64 31.4 18.84 31.38 19.11 31.35 19.34 31.3 19.52 31.26 19.67 31.21 19.83 31.17 20 31.12 20.2 31.04 20.38 30.95 20.59 30.87 20.74 30.79 20.91 30.73 21.05 30.66 21.21 30.6 21.37 30.52 21.6 30.4 21.82 30.27 22.04 30.17 22.21 30.06 22.37 30.03 22.42 30.11 22.54 30.29 22.59 30.37 22.46 30.53 22.19 30.69 21.96 30.82 21.7 30.95 21.44 31.08 21.18 31.18 20.89 31.31 20.63 31.39 20.32 31.47 20 31.55 19.69 31.63 19.38 31.68 19.17 31.73 18.83 31.78 18.49 31.81 18.12 31.84 17.76 31.85 17.71 31.85 17.69 31.86 17.6 31.87 17.51 31.88 17.42 31.87 17.31 31.87 17.21 31.86 17.1 31.85 17 31.84 16.9 31.84 16.81 31.85 16.72 31.88 16.65 31.91 16.58 31.92 16.57 31.96 16.32 31.84 16.06 31.7 16.02"/>
      <polygon class="cls-82" points="29.85 13.25 29.85 13.26 29.85 13.36 29.83 13.44 29.79 13.47 29.73 13.57 29.72 13.64 29.74 13.71 29.77 13.79 29.9 13.84 29.93 13.84 29.94 13.83 30.05 13.74 30.14 13.63 30.11 13.47 29.99 13.4 29.88 13.29 29.85 13.25"/>
      <path class="cls-105" d="M28.59,8.76h-.04s-.15.06-.15.06l-.09.04v.09s.03.09.03.09l.04.1.03.11v.11s.04.11.04.11l.02.08h0s.01.14.01.14v.06s.08.13.08.13l.1.29.11.29.13.26.08.31.13.29.08.17.06.12.04.08v.02s.04.06.04.06l.02.04.08.23.21-.1.14-.07h.17s.08.15.08.15l.06.15v.21s-.05.25-.05.25l-.08.12-.05.14-.04.16v.15l.16.13.15.08.12.08.1.09.08.12.04.15.07.16.05.14.08.13.08.12.08.14.1.09.08.12.12.08.08.05v-.2l-.04-.06-.17-.1-.04-.08-.09-.18v-.03h0s-.02-.24-.02-.24h0s-.03-.08-.03-.08l-.11-.09-.05-.21-.02-.1-.03-.1-.02-.09v-.1s-.03-.09-.03-.09l-.02-.09-.03-.09v-.05s-.06-.22-.06-.22l-.13-.27-.16-.23-.13-.26-.13-.26-.03-.05-.02-.05v-.03s-.05-.16-.05-.16l-.02-.06h0s0-.02,0-.02l-.03-.05-.02-.03-.05-.11-.02-.02-.13-.62-.13-.29-.13-.34-.15-.24-.08-.14h.02s0,0,0,0v-.09s-.05-.08-.05-.08l-.03-.07-.03-.09-.04-.11-.03-.1h-.07s-.05,0-.05,0l-.03-.06-.05-.07-.07-.04h-.04ZM31.7,16.02l-.06.02-.02.17-.04.16.03.14.09.13.11.1.04.02v-.06s.04-.07.04-.07l.03-.07h0s.01-.12.01-.12h0s-.08-.15-.08-.15l-.04-.08-.06-.16-.04-.05h0ZM29.97,16.08l-.02.06.06.07.09.07.07.08.05.06.05.07.02.02.09.14.13.26.08.31.1.29.04.21.05-.04.04-.15-.05-.16-.05-.14-.05-.14-.06-.13-.04-.17-.07-.13-.07-.13-.08-.12-.09-.12-.12-.08-.13-.08-.04-.04Z"/>
      <path class="cls-89" d="M25.95,18.05l.1-.13h.16s.14.02.14.02l.15-.02.09-.08.05-.15v-.17s.04-.15.04-.15l.06-.14.04-.13.07-.1.15-.02h.16s.12.1.12.1l.06.13.07.13.09.13.14.02.1-.26.06-.12.15-.03.04.15-.02.25.06.29.13.08.1.13.07.14v.16s.01.17.01.17l-.06.19-.02.18-.05.16-.05.16-.07.14-.04.13-.03.14v.16s.06.17.06.17l.06.12v.17s0,.18,0,.18v.17l.06.12h.14l.11-.1.08-.12.16-.03.08.09.06.13.06.11.08.14.15.03.18-.02.15.03.09.09.06.12v.16s-.05.12-.05.12l-.06.13-.06.13-.04.15-.02.15v.17l.04.15v.19l-.08.18c-.53.68-.98,1.3-1.5,2l-.19.12h-.22l-.21-.12-.1-.08-.06-.12-.07-.13-.13-.1-.04-.17.04-.14.15-.06.22.05.15.06.08-.11-.02-.17-.1-.17-.17-.1-.15-.06-.15-.07-.07-.12-.05-.15-.1-.13-.13-.08-.13-.08-.21-.12-.14-.09-.07-.14v-.16s0-.16,0-.16v-.17l-.03-.16-.04-.15-.05-.16.1-.14h.49l.14-.04.09-.1.04-.13.03-.14v-.18s.03-.29.03-.29v-.2s.01-.21.01-.21v-.31s-.03-.24-.03-.24l-.08-.2-.13-.16-.15-.16-.15-.11-.13-.13-.09-.13-.04-.14-.02-.15v-.16s.01-.06.01-.06Z"/>
      <path class="cls-10" d="M27.75,18.29l-.08.29-.06.13-.04.16-.05.15v.13s.12-.01.12-.01v-.18s.06-.16.06-.16l.05-.14.04-.15-.04-.2ZM27.74,19.39v.06s-.06.14-.06.14l-.03.15v.16s-.01.17-.01.17l-.02.17v.16s-.01.17-.01.17l.03.14.05.14.06.14.03.18.03.17.05.16.03.14.02.17.02.16.04.14.03.14.03.14-.1.07-.15-.02h-.33s-.18-.02-.18-.02l-.14-.03h-.06s.16.09.16.09l.15.06.16.02h.16s.17,0,.17,0l.14.03.07.1v.33s.04.14.04.14l.02.16.02.15v.17l.08.07.08-.1v-.14s-.02-.14-.02-.14l-.02-.17-.02-.17-.02-.15v-.16l.16-.04.13-.07.09-.08.08-.09v-.13s-.06.12-.06.12l-.12.07-.13.07-.16.03-.05-.13v-.17l-.03-.14-.03-.14-.03-.15-.05-.16v-.14s.09-.13.09-.13l.05-.14.02-.15-.07.05-.07.14-.07.1-.08.02-.02-.18-.06-.18-.05-.13-.04-.13-.06-.12-.03-.14v-.16s0-.17,0-.17v-.17s.03-.15.03-.15v-.17l.02-.15.02-.15v-.06"/>
      <polygon class="cls-32" points="30.18 22.53 30.06 22.56 29.85 22.75 29.71 22.93 29.63 23.11 29.62 23.29 29.62 23.49 29.62 23.55 29.63 23.55 29.68 23.71 29.64 23.87 29.62 23.88 29.63 23.99 29.62 24.17 29.55 24.3 29.51 24.46 29.38 24.57 29.21 24.61 29.03 24.55 29.07 24.66 29.15 24.86 29.26 25.06 29.36 25.16 29.42 25.11 29.55 24.99 29.71 24.79 29.83 24.62 30.01 24.38 30.2 24.1 30.44 23.79 30.58 23.47 30.65 23.11 30.6 22.76 30.39 22.55 30.18 22.53"/>
      <polygon class="cls-50" points="28.44 25.42 28.44 25.68 28.45 25.88 28.48 26.05 28.61 26.11 28.7 25.99 28.62 25.84 28.57 25.66 28.51 25.53 28.44 25.42"/>
      <polygon class="cls-103" points="26.65 21.1 26.65 21.06 26.67 20.91 26.7 20.73 26.7 20.71 26.72 20.87 26.68 21.01 26.65 21.1"/>
      <path class="cls-27" d="M26.03,18.78l-.04-.08-.04-.09-.03-.11v-.11s-.01-.11-.01-.11v-.11s.03-.1.03-.1h0l-.02.04v.16s.03.15.03.15l.05.14.05.08s-.02.1-.03.14"/>
      <path class="cls-103" d="M26.72,20.59v-.05s.03-.23.03-.23v-.36l-.03-.19-.02-.14-.02-.14-.07-.13-.08-.11-.11-.07-.1-.07-.09-.09-.11-.11-.08-.1v-.03s0-.1.01-.14l.04.05.13.13.15.11.15.16.13.16.08.2.05.24v.31s-.01.21-.01.21v.19s-.04.18-.04.18Z"/>
      <path class="cls-33" d="M27.69,19.91v-.16l.02-.15.02-.15v-.05.04s-.01.13-.01.13v.11s-.02.11-.02.11v.12ZM27.08,21.35l-.09-.04-.12-.04h-.02l-.15-.02-.06-.07v-.08s.04-.09.04-.09l.03-.14v-.17s0-.12,0-.12l.03-.18v-.19s.01-.21.01-.21v-.31s-.03-.24-.03-.24l-.08-.2-.13-.16-.15-.16-.15-.11-.13-.13-.03-.05-.06-.08-.05-.14-.02-.15v-.16s0-.04,0-.04l.11.02.07.05.06.08.07.07.08.05.06.06.02.11v.11s.05.09.05.09l.08.05h.13l.09-.05.09-.05.11-.03h.11s.09.08.09.08l.11.07.06.06.1.1.06.07.03.03v.09s.08,0,.08,0l.06.07.06.11.02.08v.06s-.06.14-.06.14l-.03.15v.16s0,.17,0,.17l-.02.17v.16s-.01.17-.01.17l.04.14-.05.07-.06.07-.05.09-.05.09-.04.1-.05.08-.06.08-.08.05h-.11"/>
      <path class="cls-81" d="M27.53,19.14v-.09s.04.05.04.05l.03.03h-.07ZM27.63,20.71h0l-.03-.14v-.33s.03-.17.03-.17v-.33s.05-.15.05-.15l.05-.14v-.06s0,.06,0,.06l-.02.15-.02.15v.17l-.03.11v.12s-.04.12-.04.12v.11s0,.13,0,.13l.03.1-.02.11h0"/>
      <polygon class="cls-64" points="25.97 17.99 25.98 18.33 26.08 18.53 26.22 18.74 26.45 18.81 26.66 18.65 26.89 18.53 27.09 18.63 27.19 18.88 27.23 19.18 27.21 19.45 27.16 19.75 27.05 20 27 20.25 27.16 20.44 27.07 20.67 26.93 20.87 26.8 21.08 26.59 21.22 26.52 21.01 26.57 20.71 26.59 20.39 26.59 20.05 26.57 19.73 26.5 19.45 26.34 19.25 26.16 19.09 26.02 18.94 25.91 18.72 25.86 18.42 25.88 18.11 25.97 17.99"/>
      <polygon class="cls-13" points="19.22 .25 19.08 .33 19.04 .49 19.08 .64 18.93 .68 18.7 .71 18.52 .73 18.4 .81 18.39 .97 18.45 1.14 18.57 1.31 18.71 1.49 18.87 1.59 19.02 1.69 19.07 1.8 19.02 1.95 18.98 2.1 18.98 2.27 19.07 2.4 19.25 2.5 19.42 2.54 19.64 2.54 19.84 2.56 20 2.6 20.18 2.68 20.4 2.68 20.53 2.74 20.57 2.9 20.46 3.01 20.4 3.15 20.44 3.29 20.58 3.37 20.78 3.36 21 3.31 21.17 3.36 21.25 3.49 21.38 3.55 21.55 3.59 21.73 3.62 21.91 3.6 22.05 3.54 22.19 3.49 22.38 3.47 22.59 3.47 22.66 3.6 22.55 3.72 22.42 3.81 22.36 3.97 22.44 4.13 22.64 4.15 22.93 4.17 23.19 4.19 23.47 4.21 23.77 4.23 24.02 4.25 24.2 4.15 24.42 3.88 24.58 3.64 24.69 3.47 24.8 3.31 24.9 3.2 24.9 3.08 24.76 2.93 24.63 2.76 24.52 2.63 24.43 2.46 24.32 2.33 24.21 2.17 24.08 2.04 23.92 1.95 23.79 1.94 23.77 2.12 23.75 2.3 23.64 2.38 23.45 2.3 23.36 2.17 23.23 2.04 23.14 1.91 23.05 1.74 22.92 1.57 22.8 1.4 22.71 1.24 22.58 1.07 22.41 .9 22.25 .81 22.1 .75 21.94 .67 21.73 .63 21.68 .79 21.65 .96 21.46 .96 21.35 .84 21.26 .67 21.14 .55 21.09 .53 20.83 .5 20.63 .47 20.44 .45 20.3 .35 20.2 .24 20.03 .18 19.77 .2 19.59 .21 19.41 .22 19.22 .25"/>
      <polygon class="cls-23" points="24.84 2.31 24.68 2.37 24.58 2.47 24.51 2.6 24.46 2.74 24.23 2.76 23.91 2.7 23.7 2.67 23.51 2.65 23.32 2.72 23.23 2.84 23.19 2.99 23.22 3.16 23.27 3.31 23.34 3.45 23.41 3.61 23.51 3.73 23.57 3.87 23.53 4.01 23.35 4.05 23.18 4.1 23.1 4.23 23.09 4.41 23.14 4.56 23.21 4.72 23.3 4.83 23.38 4.99 23.48 5.11 23.62 5.19 23.79 5.25 24 5.28 24.23 5.29 24.41 5.34 24.53 5.46 24.54 5.64 24.46 5.8 24.35 5.89 24.24 5.97 24.11 6.04 24.06 6.18 24 6.33 24.07 6.45 24.15 6.57 24.28 6.63 24.32 6.66 24.34 6.67 24.41 6.7 24.47 6.72 24.49 6.73 24.52 6.73 24.53 6.73 24.62 6.74 24.8 6.78 24.85 6.79 24.9 6.79 24.99 6.81 25.07 6.83 25.18 6.94 25.16 7.09 25.07 7.21 25.05 7.24 25.05 7.24 25.03 7.31 25.03 7.32 25.03 7.35 25.1 7.48 25.19 7.59 25.29 7.68 25.41 7.76 25.58 7.8 25.77 7.81 25.95 7.82 26.16 7.84 26.37 7.87 26.61 7.93 26.84 8.03 26.91 8.07 26.92 8.08 26.99 8.1 26.96 7.93 26.95 7.69 26.95 7.46 26.99 7.2 27.01 6.84 26.99 6.44 26.91 5.98 26.8 5.54 26.64 5.11 26.48 4.65 26.33 4.29 26.17 4 26.07 3.8 25.88 3.49 25.78 3.32 25.7 3.15 25.54 2.97 25.42 2.82 25.33 2.7 25.2 2.56 25.1 2.47 24.99 2.37 24.84 2.31"/>
      <polygon class="cls-71" points="20.11 .72 20.14 .91 20.22 1.07 20.28 1.2 20.37 1.36 20.47 1.49 20.35 1.53 20.2 1.48 20.07 1.39 19.93 1.28 19.79 1.17 19.62 1.1 19.55 1.2 19.65 1.31 19.8 1.4 20.01 1.49 20.23 1.6 20.4 1.67 20.6 1.78 20.8 1.86 20.99 1.91 21.16 1.95 21.38 2.01 21.59 2.05 21.84 2.12 22.04 2.2 22.17 2.3 22.29 2.39 22.42 2.46 22.54 2.55 22.57 2.67 22.41 2.74 22.28 2.82 22.14 2.89 21.98 2.94 21.81 2.96 21.64 2.99 21.4 3.01 21.24 3.06 21.37 3.08 21.59 3.08 21.8 3.05 22.04 3.03 22.25 2.98 22.43 2.93 22.59 2.85 22.76 2.81 22.96 2.81 23.1 2.86 23.26 2.9 23.4 2.95 23.6 2.98 23.81 3.01 23.99 3.03 24.15 3.1 24.29 3.15 24.47 3.21 24.67 3.21 24.83 3.18 24.86 3.07 24.77 2.93 24.67 2.81 24.56 2.7 24.46 2.55 24.38 2.43 24.28 2.29 24.18 2.17 24.09 2.05 23.98 1.96 23.83 1.95 23.81 2.13 23.79 2.31 23.65 2.36 23.49 2.31 23.38 2.22 23.27 2.1 23.18 1.97 23.08 1.84 23.01 1.71 22.92 1.57 22.83 1.43 22.72 1.3 22.66 1.37 22.66 1.56 22.49 1.52 22.4 1.37 22.32 1.23 22.2 1.07 22.25 1.23 22.38 1.44 22.47 1.63 22.62 1.83 22.71 2.01 22.77 2.2 22.74 2.33 22.54 2.29 22.36 2.18 22.21 2.06 22.02 1.96 21.89 1.84 21.78 1.66 21.67 1.44 21.54 1.3 21.38 1.15 21.25 1.13 21.25 1.31 21.33 1.53 21.42 1.71 21.46 1.84 21.29 1.79 21.13 1.73 20.99 1.61 20.87 1.52 20.71 1.41 20.6 1.27 20.44 1.13 20.32 1 20.23 .86 20.11 .72"/>
      <polygon class="cls-80" points="24.84 2.31 24.68 2.37 24.58 2.47 24.51 2.6 24.46 2.74 24.23 2.76 23.91 2.7 23.7 2.67 23.51 2.65 23.32 2.72 23.26 2.78 23.4 2.86 23.61 2.95 23.76 3.03 23.91 3.11 24.03 3.2 24.21 3.29 24.41 3.4 24.58 3.49 24.8 3.61 25.02 3.73 25.2 3.92 25.33 4.01 25.51 4.17 25.69 4.29 25.89 4.48 26.04 4.66 26.24 4.87 26.43 5.11 26.61 5.34 26.78 5.62 26.85 5.7 26.8 5.54 26.64 5.11 26.48 4.65 26.33 4.29 26.17 4 26.07 3.8 25.88 3.49 25.78 3.32 25.7 3.15 25.54 2.97 25.42 2.82 25.33 2.7 25.2 2.56 25.1 2.47 24.99 2.37 24.84 2.31"/>
      <polygon class="cls-93" points="4.07 28.09 4.05 28.37 4.03 28.63 4.09 28.85 4.35 28.87 4.59 28.79 4.72 28.65 4.64 28.44 4.53 28.28 4.39 28.15 4.22 28.04 4.07 28.09"/>
      <path class="cls-16" d="M10.58,29.7l.21-.15.26.03c.64.26,1.14.47,1.78.72l.46.1.33.2c.29.39.62.6.93.98l-.16.09-.2-.12c-.3-.14-.65-.24-.94-.41l-.18-.09-.24-.13c-.59-.27-1.38-.81-1.97-1.08l-.15-.09-.13-.05Z"/>
      <path class="cls-80" d="M23.11,4.19v.04s-.02.18-.02.18l.05.14.06.16.09.12.08.16.1.12.15.08.17.07.21.03h.21s-.05-.01-.05-.01l-.19-.03-.17-.03-.13-.06-.12-.08-.12-.08-.08-.13-.06-.13-.07-.13-.06-.13-.03-.17v-.11ZM24.19,5.99l-.08.04-.05.14-.05.15.06.12.08.12.13.07.05.03h.02s.07.04.07.04l.06.02h.02s.03.01.03.01h.1s.18.04.18.04h.05s.05.01.05.01l.09.02.08.02.11.1v.16s-.11.12-.11.12l-.02.03h0s-.01.07-.01.07h0v.04l.06.13.09.1.1.09.12.08.17.04h.18s.18.02.18.02l.21.02.21.03.25.06.22.1.08.04h0s.03.01.03.01l-.06-.17-.15-.31-.16-.29-.16-.24-.22-.23-.21-.14-.25-.13-.25-.1-.21-.09-.07-.02h0s0-.1,0-.1l-.07-.07-.12-.08-.12-.02h-.11l-.08.03h-.1s-.12.01-.12.01h-.25l-.07-.07-.02-.04Z"/>
      <path class="cls-40" d="M25.12,5.47l-.21.04-.03.17.09.11.11.1.12.08.07.15v.19l.12.09.17.02.21.03h.18s.15-.09.15-.09l.08-.24-.05-.25-.18-.24-.42-.16h-.33s-.08,0-.08,0ZM25.65,6.94h-.09s-.25.07-.25.07l-.08.13.1.09.12.09.13.07.16.08.14.07.15.06.07.13.08.12.09.11.13.08.18.03.11-.1-.02-.21-.13-.29-.23-.21-.29-.2-.25-.1h-.1Z"/>
      <polygon class="cls-40" points="23.27 3.31 23.23 3.4 23.23 3.59 23.29 3.73 23.32 3.91 23.4 4.04 23.41 4.04 23.53 4.01 23.57 3.87 23.5 3.73 23.41 3.61 23.34 3.45 23.27 3.31"/>
      <polygon class="cls-52" points="25.43 2.71 25.31 2.72 25.12 2.73 24.96 2.78 24.89 2.98 24.86 3.16 24.81 3.31 24.73 3.44 24.69 3.59 24.69 3.79 24.75 3.97 24.83 4.13 24.94 4.29 24.96 4.44 24.85 4.56 24.69 4.65 24.56 4.74 24.49 4.88 24.51 5.07 24.54 5.24 24.62 5.36 24.73 5.46 24.88 5.55 25.06 5.66 25.24 5.74 25.41 5.83 25.57 5.9 25.65 6.04 25.61 6.16 25.42 6.25 25.26 6.32 25.06 6.39 24.89 6.49 24.79 6.56 24.79 6.57 24.76 6.63 24.75 6.7 24.8 6.79 24.92 6.89 25.03 7.01 25.16 7.1 25.31 7.16 25.34 7.17 25.4 7.17 25.58 7.22 25.77 7.26 25.93 7.34 26.08 7.43 26.22 7.56 26.33 7.72 26.44 7.82 26.57 7.93 26.74 7.97 26.94 7.99 27.2 7.98 27.37 7.94 27.59 7.94 27.67 8.06 27.64 8.21 27.58 8.38 27.66 8.53 27.83 8.61 28.04 8.63 28.26 8.66 28.46 8.71 28.7 8.82 28.94 8.89 29.16 8.88 29.24 8.68 29.28 8.42 29.35 8.1 29.42 7.77 29.43 7.51 29.5 7.22 29.51 6.98 29.46 6.77 29.34 6.66 29.11 6.71 28.95 6.72 28.83 6.6 28.74 6.42 28.7 6.22 28.7 5.98 28.7 5.76 28.72 5.5 28.66 5.3 28.58 5.12 28.51 4.95 28.43 4.82 28.35 4.65 28.31 4.49 28.29 4.31 28.23 4.1 28.11 3.97 27.93 4.01 27.85 4.14 27.78 4.3 27.71 4.43 27.63 4.57 27.5 4.55 27.45 4.4 27.45 4.19 27.41 4.04 27.37 3.85 27.33 3.68 27.25 3.51 27.17 3.36 27.07 3.2 26.98 3.07 26.84 2.95 26.67 2.85 26.45 2.8 26.33 2.87 26.3 3.05 26.16 3.03 26.01 2.95 25.86 2.86 25.72 2.78 25.55 2.72 25.43 2.71"/>
      <path class="cls-38" d="M26.35,3.44l-.12.28v.18s.04.16.04.16l.02.15v.13s.04.12.04.12l.07.13.14.14.08.12.11.15.05.02.02-.13.04-.12v-.15s0-.2,0-.2v-.16s-.04-.16-.04-.16l-.07-.17-.08-.15-.1-.15-.09-.11-.12-.07ZM25.43,2.71h-.13s-.18.02-.18.02l-.17.05h-.02s.03.07.03.07l.09.1.09.12.11.13.11.13.11.16.17.23.23.27.29.37.28.33.24.26.18.25.2.24.23.31.15.25.04.19.12.13.12.16.13.24.15.27.22.37.15.3.13.23.11.23.07.18.08.17.23.43.16-.02.08-.2.04-.26.08-.32.07-.33v-.26s.08-.29.08-.29v-.24s-.04-.22-.04-.22l-.12-.11-.24.06h-.16s-.12-.12-.12-.12l-.09-.17-.04-.21v-.72s-.04-.2-.04-.2l-.08-.18-.08-.17-.08-.13-.08-.17-.04-.15-.02-.18-.05-.21-.12-.13-.18.04-.08.13-.08.15-.07.13-.08.14-.13-.02-.05-.14v-.21l-.04-.16-.04-.18-.04-.17-.08-.17-.08-.16-.1-.16-.09-.13-.15-.12-.17-.11-.21-.05-.13.08-.03.17-.14-.02-.15-.08-.15-.09-.13-.08-.17-.06h-.12Z"/>
      <polygon class="cls-58" points="24.95 2.86 25.02 2.98 25.1 3.08 25.2 3.18 25.28 3.27 25.37 3.38 25.45 3.53 25.53 3.65 25.66 3.77 25.75 3.87 25.84 3.95 25.9 4.04 25.82 4.09 25.63 4.06 25.42 4.06 25.25 4.06 25.33 4.13 25.56 4.16 25.77 4.21 25.92 4.26 26.04 4.31 26.15 4.47 26.24 4.59 26.36 4.71 26.45 4.83 26.54 4.97 26.66 5.1 26.79 5.23 26.88 5.34 26.96 5.46 27.03 5.55 26.92 5.59 26.59 5.57 26.25 5.55 25.94 5.55 25.81 5.58 26.16 5.62 26.51 5.66 26.81 5.71 26.97 5.74 27.08 5.79 27.18 5.81 27.24 5.9 27.31 6.01 27.39 6.12 27.47 6.22 27.58 6.35 27.67 6.47 27.73 6.57 27.82 6.72 27.91 6.88 27.99 7 27.87 7.05 27.63 7.04 27.34 7.02 27.02 6.98 26.74 6.93 27.08 7.02 27.43 7.08 27.71 7.13 27.92 7.17 28.04 7.22 28.1 7.26 28.14 7.38 28.24 7.5 28.3 7.6 28.34 7.71 28.4 7.8 28.44 7.9 28.49 8 28.54 8.11 28.58 8.23 28.65 8.24 28.73 8.17 28.68 8.02 28.61 7.89 28.54 7.72 28.43 7.53 28.34 7.39 28.29 7.26 28.21 7.12 28.12 6.97 28.04 6.82 27.92 6.62 27.83 6.49 27.74 6.34 27.69 6.23 27.63 6.11 27.61 6.02 27.69 5.91 27.77 5.81 27.86 5.71 27.91 5.6 27.93 5.49 27.92 5.37 27.9 5.22 27.91 5.04 27.93 4.9 27.96 4.77 28.01 4.66 27.97 4.67 27.9 4.76 27.86 4.87 27.84 5.03 27.83 5.21 27.81 5.39 27.79 5.53 27.7 5.65 27.6 5.73 27.47 5.78 27.37 5.69 27.3 5.59 27.17 5.44 27.01 5.26 26.94 5.15 26.89 5.06 26.88 4.94 26.88 4.78 26.89 4.62 26.89 4.1 26.88 3.98 26.85 4.07 26.79 4.69 26.79 4.87 26.74 4.94 26.57 4.73 26.49 4.58 26.38 4.42 26.27 4.27 26.2 4.18 26.15 4.08 26.09 4.01 26.1 3.86 26.13 3.67 26.14 3.51 26.14 3.33 26.14 3.43 26.09 3.6 26.05 3.75 26.01 3.89 25.95 3.83 25.86 3.69 25.75 3.57 25.68 3.46 25.58 3.38 25.45 3.33 25.02 2.88 24.95 2.86"/>
      <polygon class="cls-47" points="16.83 7.8 14.84 13.98 8.34 13.96 13.61 17.77 11.59 23.94 16.83 20.11 22.07 23.94 20.05 17.77 25.31 13.96 18.82 13.98 16.83 7.8"/>
      <path class="cls-19" d="M22.34,24.3l-5.51-4.01-5.5,4.01,2.12-6.48-5.53-4,6.82.02,2.09-6.49,2.09,6.49h6.82s-5.53,3.98-5.53,3.98l2.12,6.48ZM21.81,23.58l-1.91-5.86,4.99-3.61h-6.16s-1.9-5.86-1.9-5.86l-1.89,5.87h-6.16s4.99,3.61,4.99,3.61l-1.91,5.86,4.98-3.64,4.98,3.64Z"/>
      <polygon class="cls-46" points="29.96 21.33 29.88 21.49 29.77 21.6 29.69 21.71 29.62 21.83 29.53 21.96 29.43 22.09 29.33 22.23 29.21 22.39 29.11 22.54 29 22.68 28.9 22.81 28.81 22.93 28.7 23.02 28.68 23.04 28.68 23.04 28.61 23.07 28.49 23.18 28.4 23.31 28.31 23.43 28.19 23.58 28.05 23.72 27.93 23.85 27.83 24.04 27.72 24.18 27.63 24.3 27.57 24.44 27.5 24.53 27.5 24.54 27.46 24.6 27.38 24.73 27.29 24.85 27.2 24.95 27.12 25.07 27.05 25.2 26.95 25.3 26.87 25.42 26.77 25.51 26.68 25.62 26.59 25.72 26.58 25.71 26.51 25.6 26.42 25.5 26.29 25.42 26.12 25.46 25.98 25.53 25.94 25.57 25.93 25.57 25.93 25.58 25.88 25.64 25.87 25.83 25.86 26.01 25.87 26.19 25.87 26.39 25.89 26.56 25.94 26.72 25.92 26.87 25.87 27.01 25.8 27.16 25.72 27.3 25.66 27.45 25.58 27.62 25.51 27.77 25.43 27.95 25.35 28.12 25.27 28.27 25.22 28.44 25.14 28.57 25.05 28.71 24.97 28.85 24.89 29 24.78 29.1 24.67 29.2 24.54 29.29 24.44 29.39 24.3 29.5 24.17 29.59 24.05 29.69 23.95 29.78 23.86 29.88 23.7 29.94 23.57 30.02 23.45 30.11 23.32 30.19 23.18 30.27 23.05 30.34 22.92 30.41 22.78 30.43 22.71 30.3 22.62 30.19 22.47 30.12 22.29 30.11 22.11 30.16 21.95 30.23 21.8 30.3 21.65 30.41 21.63 30.44 21.57 30.55 21.52 30.7 21.49 30.86 21.49 30.91 21.48 31.04 21.46 31.22 21.37 31.32 21.22 31.39 21.09 31.48 20.95 31.57 20.82 31.66 20.65 31.77 20.56 31.86 20.62 31.91 20.77 31.96 20.96 32.03 21.13 32.08 21.3 32.12 21.55 32.16 21.73 32.2 21.93 32.24 22.11 32.25 22.33 32.29 22.54 32.32 22.73 32.32 22.92 32.3 23.04 32.2 23.18 32.08 23.3 31.98 23.43 31.87 23.56 31.75 23.7 31.6 23.86 31.47 24.04 31.36 24.17 31.22 24.33 31.09 24.52 30.97 24.71 30.86 24.88 30.73 25.02 30.62 25.15 30.53 25.31 30.43 25.44 30.34 25.6 30.25 25.72 30.15 25.86 30.06 26 29.98 26.12 29.9 26.25 29.83 26.35 29.74 26.42 29.61 26.51 29.48 26.55 29.32 26.59 29.17 26.56 29 26.51 28.88 26.55 28.71 26.56 28.53 26.59 28.36 26.67 28.19 26.73 28.01 26.8 27.86 26.85 27.69 26.89 27.52 26.94 27.38 26.99 27.24 27.03 27.08 27.08 26.93 27.13 26.79 27.2 26.65 27.27 26.52 27.33 26.39 27.41 26.27 27.49 26.11 27.59 26 27.68 25.85 27.78 25.72 27.88 25.6 28.06 25.59 28.18 25.5 28.26 25.38 28.35 25.28 28.45 25.14 28.53 24.99 28.6 24.85 28.64 24.69 28.66 24.52 28.77 24.4 28.9 24.29 28.99 24.14 29.08 24.01 29.17 23.87 29.26 23.75 29.35 23.62 29.39 23.52 29.45 23.48 29.54 23.37 29.64 23.24 29.77 23.11 29.91 22.95 30.02 22.82 30.16 22.66 30.27 22.55 30.33 22.3 30.27 21.96 30.19 21.7 30.1 21.49 29.98 21.33 29.96 21.33"/>
      <path class="cls-75" d="M30.13,21.85h-.13s-.33.06-.33.06l-.14.03v.02s-.11.13-.11.13l-.11.14-.12.16-.1.14-.11.15-.1.13-.09.12-.1.09.11.03.1.09.08.15.05.15.03.17v.18s-.07.12-.07.12l-.07.13-.09.12-.09.12-.1.12-.09.12-.02.17-.07.15-.07.13-.05.14-.08.12-.12.09-.16.04-.13.07-.03.17-.16.05-.09.1-.12.12-.11.13-.1.15-.08.18-.09.16-.13.23-.07.15-.07.16-.05.17-.07.17-.06.18-.05.18-.08.17-.08.17-.06.15-.05.14.04.16-.09.28.04.16.17.04.08.07-.02-.04-.05-.12.04-.17v-.18s.04-.17.04-.17l.08-.17.06-.18.07-.14.05-.17.04-.17.05-.14.05-.14.04-.16.05-.15.05-.14.07-.14.07-.13.07-.13.08-.12.08-.16.1-.12.09-.14.09-.13.11-.12h.18s.12-.1.12-.1l.08-.12.09-.11.11-.15.08-.14.07-.14.04-.16.03-.17.1-.12.13-.12.09-.15.09-.13.09-.15.09-.12.09-.13.03-.1.06-.05.09-.1.11-.13.13-.13.13-.16.12-.13.14-.16.11-.12.06-.25-.06-.34-.03-.11h-.1ZM26.58,29.19h-.04s-.19.04-.19.04l-.16.07v.2l-.02.17-.09.1-.15-.04h-.16s-.13.06-.13.06l-.12.09-.1.09-.11.09-.13.06-.17.03h-.12v.18s-.06.14-.06.14h-.21s-.15.07-.15.07l-.1.1-.09.12-.16.07-.17.05-.13.07-.15.05-.15.04-.11.09-.07.13-.1.09-.16-.04-.1-.09-.08-.12-.09-.11-.09-.1-.06-.11-.09.11-.09.14-.02.07-.07.14-.16.05-.16-.04-.16-.07-.14-.07-.09-.1-.08-.12-.12.12-.03.18h0s.06.13.06.13l.08.12.12.08.1.09.1.09.03.03-.16.1-.13.07-.13.08-.06.13.13.09.18.04h.22c.38.07.56,0,.85.03h.08s.11-.09.11-.09l.14-.12.12-.1.13-.1.13-.12.14-.15.15-.13.18-.11.13-.14.16-.13.2-.12.18-.11.17-.13.14-.12.13-.09.15-.09.13-.09.16-.09.13-.1.13-.09.14-.08.12-.08.13-.07.11-.09.07-.13.09-.13.04-.16.04-.13Z"/>
      <polygon class="cls-9" points="26.13 29.82 25.97 29.86 25.86 29.94 25.73 30 25.6 30.07 25.48 30.15 25.36 30.25 25.24 30.34 25.1 30.42 24.97 30.51 24.84 30.59 24.72 30.68 24.59 30.79 24.46 30.88 24.31 30.95 24.17 31.02 24.03 31.07 23.91 31.15 23.78 31.22 23.64 31.3 23.5 31.39 23.35 31.44 23.22 31.51 23.04 31.52 22.87 31.49 22.76 31.4 22.67 31.3 22.58 31.19 22.51 31.06 22.54 30.89 22.49 30.96 22.4 31.07 22.29 31.17 22.13 31.23 21.89 31.22 21.93 31.27 22 31.39 22.1 31.49 22.2 31.6 22.28 31.72 22.24 31.87 22.12 31.95 22 32.03 21.85 32.13 21.74 32.2 21.93 32.24 22.11 32.25 22.33 32.29 22.54 32.32 22.73 32.32 22.92 32.3 23.04 32.2 23.18 32.08 23.3 31.98 23.43 31.87 23.56 31.75 23.7 31.6 23.86 31.47 24.04 31.36 24.17 31.22 24.33 31.09 24.53 30.97 24.71 30.87 24.88 30.73 25.02 30.62 25.15 30.53 25.31 30.43 25.44 30.34 25.6 30.25 25.73 30.15 25.86 30.06 26 29.98 26.12 29.9 26.22 29.85 26.13 29.82"/>
      <polygon class="cls-86" points="26.16 28.33 26.21 28.54 26.14 28.67 26.07 28.81 25.99 28.96 25.92 29.09 25.83 29.19 25.7 29.22 25.66 29.09 25.75 28.91 25.84 28.75 25.93 28.59 26.04 28.46 26.16 28.33"/>
      <path class="cls-99" d="M28.87,23.43h-.01s0,.02,0,.02v-.02ZM28.87,23.45l-.11.17-.08.12-.1.12-.09.14-.05.15.07.1.12-.1.09-.13.08-.13.08-.13.05-.16-.04-.14ZM27.78,25.09h-.02s-.12.1-.12.1l-.14.14-.09.13-.1.16-.09.14-.08.14-.09.13-.08.15-.09.14-.08.15-.07.15-.08.14-.05.14-.06.16-.03.15.12.11.1-.11.05-.17.07-.16.09-.18.08-.16.06-.16.07-.13.08-.16.08-.12.07-.15.09-.16.09-.13.09-.1.08-.14.1-.16-.04-.08ZM26.29,25.42l-.17.04-.13.07-.04.04h0s0,.01,0,.01l-.04.06v.15s0,0,0,0l.1.08.12.03h.13s.11-.04.11-.04l.08-.05.07-.08v-.12l-.03-.09-.04-.04-.13-.08ZM26.08,28.19l-.15.05-.09.13-.14.14-.12.13-.12.16-.05.14v.2l.05.15h.16l.08-.12.08-.12.07-.13.08-.12.09-.15.08-.13.08-.12v-.17l-.07-.04h-.02ZM26.3,29.03l-.12.05-.12.09-.07.13-.16.04-.09.12-.1.09-.12.08-.18-.08-.2-.12-.15-.05-.13.06.12.08.11.1.13.07.06.14-.13.07-.1-.09-.12-.05-.11.09-.02.14.12.08h.2s.13-.05.13-.05l.12-.08.09-.11.09-.1.13-.08.13-.08h.19l.07-.13.02-.17.09-.12.17-.03-.03-.09h-.04ZM22.34,30.1h-.04s-.18.06-.18.06l-.15.06-.16.08-.14.11-.03.03-.05.11-.05.14-.03.17v.05s0,.1,0,.1l.06.12.12.11.2.1.45-.12.08-.12.09-.12.08-.12.05-.14.07-.13.03-.17v-.12s-.09-.11-.09-.11l-.14-.07-.14-.02ZM24.68,30.13l-.17.13-.13.09-.12.11-.13.1-.2.09-.15.07-.2.04-.14.08-.09.11-.08.12-.12.08-.09-.08-.03-.15-.06-.13-.03-.17-.12.04-.04.16.02.14.08.12.07.13.16.04.12.05.07-.13.1-.12.13-.08.13-.07.16-.04.14-.05.14-.05.12-.08.1-.09.13-.09.13-.08.12-.08-.04-.21ZM21.48,31.24l-.13.04-.14.05-.14.06-.17.09-.29.17.05.09.15.09.24.09.27.07.22.02.14-.05.12-.08.13-.06h.15s-.02-.08-.02-.08l-.13-.15-.15-.13-.16-.12-.13-.12Z"/>
      <path class="cls-2" d="M19.1,34.43h-.23c-.26,0-.55.13-.71.32.11.22.4.34.59.5.28.12.52.32.73.53.25.18.51.33.75.51l.53.51h.02l.14-.02-.07-.13-.14-.11-.12-.09-.1-.1-.11-.11-.12-.08-.13-.07-.13-.08-.12-.09-.11-.12v-.16s.04-.14.04-.14l.08-.13.16-.09.15.04h.18s.19.01.19.01h.21s.2.01.2.01l.14-.02-.35-.31c-.22-.12-.47-.21-.71-.3-.25-.11-.52-.16-.77-.27l-.22-.03Z"/>
      <path class="cls-95" d="M20.18,35.11l-.33.07-.23.13-.13.22-.05.21.05.05c.25.18.51.33.75.5l.09.08.03-.04v-.12s.03-.19.03-.19l.13-.07h.2s.17.01.17.01h.19s.2,0,.2,0h.4s.17.01.17.01l-.42-.38-.48-.49-.32-.02h-.44Z"/>
      <polygon class="cls-9" points="29.96 21.33 29.88 21.49 29.77 21.6 29.69 21.71 29.62 21.83 29.53 21.96 29.43 22.09 29.4 22.14 29.41 22.17 29.42 22.3 29.47 22.61 29.35 22.93 29.23 23.18 29.12 23.31 29.09 23.49 29.16 23.62 29.24 23.74 29.26 23.75 29.35 23.62 29.39 23.52 29.45 23.48 29.54 23.37 29.64 23.24 29.77 23.11 29.91 22.95 30.02 22.82 30.16 22.66 30.27 22.55 30.33 22.3 30.27 21.96 30.26 21.94 30.26 21.93 30.25 21.89 30.19 21.7 30.1 21.49 29.98 21.33 29.96 21.33"/>
      <polygon class="cls-31" points="28.48 26.64 28.47 26.69 28.46 26.87 28.53 27 28.69 27.04 28.82 26.98 28.91 26.86 28.99 26.71 29.03 26.56 29.08 26.41 29.15 26.26 29.24 26.09 29.3 25.92 29.37 25.69 29.4 25.47 29.34 25.28 29.25 25.12 29.2 24.94 29.32 24.81 29.54 24.82 29.66 24.74 29.6 24.45 29.59 24.17 29.59 23.93 29.69 23.83 29.97 23.88 30.15 23.87 30.06 23.52 29.97 23.25 29.83 23.1 29.67 22.93 29.56 22.76 29.53 22.51 29.59 22.25 29.77 22.08 29.89 21.94 29.93 21.74 29.93 21.5 29.92 21.27 29.9 21.06 29.81 20.84 29.75 20.7 29.76 20.45 29.84 20.29 30.03 20.21 30.3 20.21 30.54 20.25 30.75 20.26 30.99 20.26 31.17 20.23 31.38 20.11 31.5 19.99 31.58 19.86 31.68 19.73 31.82 19.6 31.95 19.49 32.1 19.4 32.23 19.34 32.38 19.29 32.51 19.38 32.61 19.49 32.7 19.68 32.75 19.85 32.76 20.06 32.75 20.24 32.71 20.47 32.74 20.64 32.92 20.67 33.1 20.72 33.19 20.85 33.25 21.09 33.25 21.33 33.19 21.54 33.07 21.79 32.98 22.03 32.89 22.24 32.81 22.43 32.7 22.64 32.59 22.84 32.49 23.03 32.34 23.2 32.23 23.34 32.12 23.5 31.99 23.63 31.91 23.75 32.04 23.8 32.2 23.79 32.24 23.94 32.23 24.1 32.12 24.26 32.04 24.43 31.94 24.6 31.82 24.8 31.67 24.96 31.51 25.11 31.33 25.24 31.18 25.36 31.01 25.47 30.86 25.58 30.71 25.71 30.63 25.8 30.65 25.96 30.78 26.06 30.84 26.23 30.84 26.41 30.76 26.54 30.59 26.64 30.4 26.73 30.16 26.81 29.97 26.88 29.77 26.96 29.62 27.04 29.47 27.11 29.28 27.13 29.12 27.08 28.96 27.12 28.86 27.21 28.69 27.3 28.49 27.34 28.31 27.35 28.15 27.31 28.02 27.22 28.04 27.07 28.11 26.94 28.26 26.79 28.4 26.71 28.48 26.64"/>
      <path class="cls-15" d="M32.7,19.69l-.03.04-.13.18-.03.21-.07.17-.08.14-.07.13-.09.05-.07-.15-.08-.12-.08-.12-.12-.12h-.07s.08.21.08.21l.08.15.07.15v.19l-.16.04-.09.1-.09.13-.09-.12-.09-.12-.09-.11-.13-.09-.14-.1-.16-.09-.18-.11-.26-.1-.02.05-.1.09-.12.08-.12.09.04.13.09.13.13.12.12.12.13.17.1.14.12.16.1.21.09.19.08.17.08.22.09.3.07.21.02.26v.28l.03.27.04.29.25.33.3.11.06-.11.1-.16v-.16s-.02-.16-.02-.16h-.15s-.13-.04-.13-.04l.08-.12.13-.13.1-.16.12-.14.15-.17.1-.19.1-.2.12-.21.08-.19.09-.21.09-.24.12-.25.05-.21v-.25l-.05-.24-.09-.13-.18-.05-.18-.02-.03-.17.04-.24v-.18s0-.21,0-.21l-.05-.15ZM30.54,20.25h0s0,0,0,0h0Z"/>
      <path class="cls-61" d="M31.94,21.28l-.02.06v.11s-.02.18-.02.18l-.05.16-.03.18-.07.17-.04.16-.02.06v.1s-.04.26-.04.26l-.05.18-.08.11-.08.11-.06.13-.05.14-.06.13-.11.09h0l.02.16-.02.26-.04.16-.09.13-.11.12-.09.09-.02.11-.13.09-.12.1-.05.14-.07.17-.04.15-.1.11-.02-.03-.09.19-.05.08-.03.11v.02s-.03.16-.03.16l-.07.13-.08.14-.08.14-.08.12h0s-.02.04-.02.04l-.07.07-.13.07h-.03s-.06.05-.06.05l-.13.09-.12.12-.16.08-.13.06-.12.08-.12.08-.18.14.16-.03.17-.09.11-.09.15-.04.16.05.19-.02.15-.06.15-.08.2-.08.19-.08.24-.08.2-.09.17-.09.08-.13v-.18l-.07-.17-.13-.11v-.16s.07-.09.07-.09l.14-.13.15-.1.17-.12.14-.12.18-.13.15-.14.16-.17.12-.19.11-.17.08-.17.1-.16v-.16s-.02-.16-.02-.16h0l-.24.05-.16-.05.04-.17.1-.19.13-.17.17-.17.1-.17.07-.16v-.18l-.17.12-.14.15-.17.13-.21.04-.03-.12.04-.22h0s-.01-.06-.01-.06l.05-.15.04-.15.04-.16.08-.17.02-.18v-.18s0-.19,0-.19v-.14ZM30.1,24.52h0s0,.01,0,.01h0Z"/>
      <path class="cls-4" d="M32.3,19.6l-.06.33v.35s-.04.25-.04.25v.24s-.06.25-.06.25l-.06.2-.07.15-.09.18-.07.05-.07-.16-.05-.21-.05-.19-.11-.21-.13-.16-.04.05.07.15.08.12.07.13.06.16.03.18.02.21v.2s.05.15.05.15l.11-.12.09-.25.09-.22.06-.22.06-.16.04-.21.03-.21.03-.22.04-.2v-.24s.02-.21.02-.21l-.05-.17h0ZM30.2,20.7l.15.2.13.19.13.17.1.15.12.2.12.17.09.16.09.2.06.21.09.25.04.23v.37s.09-.2.09-.2l.04-.17v-.21s-.08-.29-.08-.29l-.12-.24-.12-.21-.12-.26-.12-.25-.16-.25-.15-.14-.09-.07-.2-.13-.09-.09h-.02ZM30.12,22.52l.02.07.18.13.15.13.13.12.08.16.07.19v.21s.02.24.02.24v.72l.04.12.09-.19.07-.2v-.22s-.02-.26-.02-.26l-.02-.22v-.19s-.1-.2-.1-.2l-.11-.2-.13-.13-.2-.13-.18-.12-.1-.02ZM30.12,24.43v.04s0,.25,0,.25l.04.25v.43s-.01.22-.01.22l-.02.12.04-.03.1-.11.07-.16-.07-.14-.05-.18-.05-.19v-.34s-.04-.16-.04-.16ZM29.68,25.97v.18s-.04.17-.04.17l-.05.14-.07.17.13-.1.07-.12-.02-.17v-.22s-.01-.05-.01-.05Z"/>
      <polygon class="cls-73" points="29.33 5.97 29.22 6.14 29.22 6.42 29.24 6.67 29.2 6.91 29.07 7.06 29.11 7.3 29.15 7.54 29.04 7.71 28.85 7.62 28.78 7.66 28.65 7.63 28.46 7.74 28.37 7.93 28.35 8.19 28.37 8.45 28.43 8.67 28.56 8.84 28.72 8.94 28.87 9.07 29 9.22 28.9 9.41 28.72 9.52 28.72 9.76 28.85 9.9 28.98 10.05 29.15 10.17 29.33 10.27 29.34 10.28 29.24 10.31 29.11 10.46 29.17 10.68 29.27 10.85 29.4 11 29.49 11.08 29.49 11.08 29.57 11.24 29.76 11.34 29.96 11.46 29.98 11.47 29.99 11.48 30.14 11.57 30.32 11.67 30.35 11.7 30.38 11.73 30.36 11.88 30.14 11.86 29.92 11.81 29.83 12.03 29.85 12.29 29.9 12.51 29.98 12.73 30.07 12.91 30.2 13.08 30.36 13.21 30.55 13.3 30.73 13.39 30.97 13.47 31.12 13.62 30.95 13.74 30.9 13.93 31.05 14.06 31.2 14.21 31.38 14.32 31.56 14.43 31.67 14.59 31.62 14.8 31.47 14.91 31.47 15.11 31.6 15.26 31.73 15.41 31.82 15.59 31.81 15.85 31.71 16.05 31.53 16.17 31.51 16.38 31.54 16.62 31.71 16.74 31.91 16.7 32.04 16.55 32.05 16.36 32.05 16.35 32.05 16.17 32.08 16.01 32.13 15.85 32.18 15.7 32.25 15.58 32.34 15.46 32.42 15.34 32.47 15.2 32.52 15.05 32.52 14.96 32.53 14.78 32.57 14.69 32.57 14.69 32.59 14.52 32.66 14.39 32.75 14.27 32.85 14.15 32.93 14.03 33 13.88 33.04 13.72 33.1 13.59 33.11 13.41 33.08 13.25 32.97 13.16 32.83 13.14 32.72 13.23 32.66 13.28 32.66 13.29 32.64 13.3 32.62 13.3 32.62 13.3 32.59 13.29 32.56 13.25 32.54 13.15 32.61 13.02 32.67 12.89 32.75 12.77 32.83 12.65 32.88 12.5 32.95 12.37 33 12.22 33.04 12.07 33.04 11.87 33.01 11.7 33 11.52 32.99 11.33 32.93 11.19 32.87 11.06 32.72 11.01 32.66 11.02 32.58 11.07 32.47 11.24 32.36 11.42 32.27 11.62 32.15 11.79 32.01 11.81 31.98 11.79 31.95 11.65 32.01 11.5 32.06 11.38 32.1 11.29 32.13 11.23 32.13 11.23 32.18 11.07 32.23 10.93 32.27 10.77 32.31 10.62 32.32 10.43 32.32 10.41 32.32 10.38 32.33 10.25 32.33 10.24 32.32 10.07 32.3 9.91 32.29 9.91 32.28 9.9 32.25 9.74 32.24 9.72 32.24 9.71 32.19 9.61 32.11 9.49 32.05 9.36 32.04 9.25 32.01 9.15 31.95 8.93 31.9 8.7 31.69 8.7 31.6 8.89 31.57 8.93 31.57 8.93 31.51 9.06 31.38 9.08 31.37 8.9 31.39 8.8 31.4 8.76 31.42 8.5 31.45 8.26 31.46 8.18 31.46 8.15 31.43 7.98 31.41 7.93 31.41 7.93 31.39 7.9 31.39 7.88 31.37 7.85 31.29 7.73 31.22 7.6 31.21 7.58 31.14 7.51 31.08 7.39 31.08 7.38 31 7.26 30.96 7.21 30.9 7.12 30.79 7.03 30.72 7 30.64 7.12 30.49 7.25 30.35 7.12 30.29 6.9 30.27 6.69 30.23 6.63 30.15 6.51 30.06 6.41 29.94 6.33 29.94 6.33 29.87 6.3 29.66 6.23 29.5 6.1 29.33 5.97"/>
      <polygon class="cls-59" points="28.8 7.55 28.75 7.58 28.75 7.78 28.77 7.95 28.88 8.09 28.97 8.19 29.07 8.27 29.2 8.4 29.3 8.53 29.42 8.64 29.58 8.74 29.72 8.83 29.86 8.92 30.04 9 30.15 9.09 30.24 9.17 30.36 9.26 30.5 9.34 30.52 9.16 30.52 8.97 30.48 8.75 30.48 8.55 30.47 8.35 30.46 8.15 30.46 7.95 30.4 7.84 30.4 8.04 30.39 8.24 30.39 8.44 30.27 8.47 30.18 8.58 30.16 8.57 30.05 8.52 29.94 8.42 29.85 8.32 29.75 8.22 29.62 8.14 29.53 8.03 29.42 7.93 29.3 7.85 29.17 7.78 29.07 7.72 29.09 7.71 29.02 7.62 28.95 7.58 28.8 7.55"/>
      <path class="cls-57" d="M29.28,5.98l-.06.16v.28l.02.26-.03.24-.13.15.04.24.04.24-.07.17.1.06.13.07.12.08.11.1.09.11.13.08.11.1.09.11.1.09.12.05v-.15l-.03-.18-.04-.16-.04-.17-.07-.14-.07-.13-.09-.15-.06-.16-.11-.14-.06-.13-.07-.13-.07-.13-.06-.13-.04-.15-.04-.16-.04-.16v-.17s-.01-.04-.01-.04ZM28.88,8.09l.05.12.11.16.05.22.09.18.13.15.13.15.06.24-.09.18-.18.09.04.24.11.24.03.07.06.03.21.12.2.08.13.08.16.08.13.08.13.07.13.07.16.09.16.06.15.06.16.08.04-.04-.06-.13-.09-.12-.09-.17-.09-.17-.08-.17-.09-.17-.08-.15-.07-.17-.06-.16-.07-.16-.07-.13-.1-.1-.1-.11-.12-.09-.17-.08-.15-.09-.14-.09-.16-.09-.12-.12-.1-.13-.12-.14-.13-.11-.07-.06ZM31.16,8.21v.21l-.03.18-.03.17-.06.16-.09.12-.15.08-.12.08-.02.17.04.15.07.13.07.16.06.14.07.14.08.13.06.13.08.13.09.15.05.15.09-.03.07-.13.08-.12.08-.15.07-.16.02-.17v-.18s-.04-.2-.04-.2l-.04-.15-.08-.14-.09-.13-.11-.12-.07-.13-.04-.16-.03-.17-.04-.15-.04-.16v-.15ZM29.37,10.63h-.07s-.15.03-.15.03h0s.11.18.11.18l.13.15.17.16.2.18.18.09.18.13.18.11.04.2-.22-.02-.22-.06-.05.03-.02.03h0s0,.03,0,.03v.04s0,0,0,0h0s.13.1.13.1l.13.06.14.08.14.1.1.09.11.09.14.06.13.1.13.11.12.12.13.13.09.12.04.15-.27-.05-.14-.12-.12-.03.06.17v.22s.02,0,.02,0l.06.02.15.15-.16.13-.06.19.15.13.15.15.18.11.19.11.11.17-.05.2-.15.11v.2l.13.15.13.15.09.18-.02.26-.09.2-.18.11-.02.22v.03l.2-.02.1-.18v-.2s.03-.18.03-.18l.04-.16v-.19l.02-.17.04-.17v-.19l.04-.07-.04-.18v-.2l-.04-.16v-.19s0-.18,0-.18v-.18s-.02-.18-.02-.18v-.19l-.03-.18-.03-.17.05-.04.06.17.05-.09.07-.13.09-.1.1-.12.08-.14.08-.13.08-.17.06-.14.05-.14v-.19l-.03-.18h0s-.02.18-.02.18l-.06.13-.08.13-.09.1-.1.12-.07.14-.1.13-.08.14-.09.12h-.1s-.05-.16-.05-.16l-.03-.17-.03-.18-.05-.2-.04-.17-.06-.18-.04-.18-.05-.17-.08-.12-.19-.07-.22-.07-.16-.06-.22-.08-.21-.08-.17-.05-.08-.04-.13-.08-.17-.08-.22-.04h-.19ZM32.87,13.12l-.05.02-.1.09-.07.06h0s-.02.01-.02.01h-.02s-.03,0-.03,0l-.05.09-.13.13-.12.1-.1.12-.12.09v.2s.04.18.04.18v.18s.01.2.01.2v.18s.01.04.01.04l.1-.16.09-.1.06-.14.04-.2.08-.18.11-.16.08-.16.07-.14.06-.13.11-.1.08-.14-.04-.03-.1-.04Z"/>
      <path class="cls-43" d="M28.35,8.05h0s.01,0,.01,0h-.01ZM28.35,8.07h0v.12l.02.26.06.22.13.16.16.11.15.13.13.15-.1.18-.18.11v.24l.13.15.13.15.17.11.18.11h.01s-.11.04-.11.04l-.13.15.06.22.11.16.13.15.09.09h0s.08.15.08.15l.18.11.2.11h.02s0,.01,0,.01h0s.04.03.04.03l.03.02.09.04.09.05.08.05h0s0,0,0,0l.02-.05h0s.02-.17.02-.17v-.08s.03-.26.03-.26v-.28l-.06-.22-.12-.16-.02-.03-.12-.08-.11-.09-.13-.07h-.11l-.08-.04-.18-.09-.14-.11-.04-.04-.02-.08-.05-.12.02-.12.11-.03.11-.05.06-.07v-.15s-.04-.11-.04-.11l-.05-.11-.07-.1-.08-.07-.07-.1-.05-.08-.04-.1-.04-.09-.07-.08-.1-.04h-.02s-.24-.04-.24-.04l-.19-.09-.13-.18ZM29.95,11.79h-.03s-.06.06-.06.06l-.03.18v.08h.02s.13-.07.13-.07l.11-.09.06-.08h0s-.02-.02-.02-.02h0l-.03-.02h-.02s-.02-.02-.02-.02h-.04s-.03-.01-.03-.01h-.03Z"/>
      <polygon class="cls-85" points="26.53 7.77 26.42 7.81 26.42 7.81 26.4 7.81 26.35 7.89 26.33 7.91 26.29 7.97 26.24 8.11 26.22 8.29 26.2 8.49 26.14 8.66 26.07 8.79 26.01 8.94 25.98 9.13 26.03 9.31 26.09 9.48 26.07 9.63 25.86 9.64 25.77 9.68 25.79 9.79 25.79 9.92 25.77 10.04 25.77 10.18 25.8 10.29 25.83 10.39 25.88 10.47 25.89 10.48 26.04 10.58 26.18 10.71 26.25 10.86 26.26 11.04 26.12 11.11 25.89 11.09 25.77 11.15 25.75 11.2 25.75 11.21 25.74 11.3 25.74 11.31 25.74 11.32 25.78 11.41 25.8 11.52 25.84 11.63 25.88 11.75 25.93 11.85 25.99 11.94 26.06 12.02 26.15 12.08 26.24 12.14 26.34 12.2 26.43 12.27 26.55 12.32 26.67 12.39 26.8 12.45 26.89 12.48 26.9 12.48 26.97 12.51 26.98 12.51 27.11 12.54 27.22 12.56 27.36 12.6 27.47 12.64 27.56 12.69 27.65 12.75 27.72 12.81 27.77 12.9 27.83 12.99 27.89 13.08 27.97 13.14 28.04 13.19 28.12 13.27 28.18 13.35 28.25 13.41 28.32 13.48 28.39 13.55 28.46 13.62 28.53 13.69 28.6 13.76 28.67 13.84 28.69 13.87 28.7 13.93 28.71 13.98 28.71 14.04 28.74 14.19 28.83 14.35 28.91 14.49 28.99 14.63 29.01 14.69 29.05 14.78 29.11 14.86 29.17 14.94 29.23 15.03 29.26 15.07 29.34 15.22 29.41 15.41 29.48 15.55 29.55 15.7 29.64 15.84 29.75 15.94 29.86 16.09 30.01 16.21 30.18 16.31 30.27 16.45 30.36 16.58 30.47 16.7 30.56 16.81 30.65 16.91 30.88 16.7 30.96 16.49 31.04 16.35 31.09 16.17 31.1 15.96 31.08 15.76 31.03 15.59 30.96 15.44 30.82 15.38 30.61 15.42 30.58 15.43 30.54 15.45 30.53 15.45 30.48 15.48 30.48 15.48 30.44 15.51 30.36 15.58 30.29 15.65 30.19 15.7 30.18 15.7 30.1 15.71 30.02 15.59 30.01 15.41 30.01 15.21 30.05 15.04 30.1 14.86 30.14 14.69 30.21 14.49 30.27 14.35 30.32 14.19 30.33 14.01 30.33 13.82 30.24 13.7 30.09 13.79 29.95 13.9 29.84 14.05 29.69 14.17 29.55 14.13 29.51 13.97 29.51 13.78 29.5 13.79 29.53 13.62 29.54 13.44 29.55 13.26 29.6 13.1 29.65 12.94 29.74 12.78 29.81 12.64 29.91 12.48 29.95 12.3 29.8 12.26 29.58 12.27 29.35 12.29 29.24 12.25 29.22 12.24 29.2 12.12 29.2 12.09 29.2 12.07 29.24 11.91 29.35 11.82 29.48 11.74 29.62 11.63 29.72 11.52 29.85 11.42 29.91 11.3 29.88 11.12 29.86 10.93 29.86 10.73 29.86 10.54 29.94 10.42 30.01 10.29 30.04 10.12 29.91 10.04 29.72 10.02 29.51 10.02 29.32 10.04 29.17 10.11 29.03 10.19 28.91 10.3 28.81 10.46 28.7 10.62 28.55 10.73 28.38 10.76 28.25 10.65 28.23 10.46 28.3 10.3 28.4 10.19 28.52 10.09 28.66 9.98 28.74 9.82 28.77 9.61 28.79 9.4 28.79 9.2 28.72 9.05 28.64 8.93 28.57 8.79 28.53 8.63 28.49 8.46 28.4 8.34 28.25 8.36 28.14 8.5 28.09 8.66 28.01 8.87 27.94 9.04 27.83 9.19 27.66 9.24 27.59 9.1 27.62 8.9 27.64 8.67 27.67 8.46 27.64 8.29 27.47 8.24 27.27 8.2 27.11 8.14 26.99 8.02 26.93 7.89 26.85 7.82 26.8 7.79 26.67 7.77 26.53 7.77"/>
      <polygon class="cls-104" points="26.48 7.78 26.42 7.81 26.42 7.81 26.4 7.81 26.35 7.89 26.33 7.91 26.29 7.97 26.23 8.11 26.22 8.29 26.2 8.49 26.14 8.66 26.06 8.79 26.01 8.94 25.99 9.13 26.03 9.31 26.09 9.48 26.06 9.63 25.86 9.64 25.77 9.68 25.79 9.79 25.79 9.92 25.76 10.04 25.76 10.18 25.79 10.29 25.83 10.39 25.88 10.47 25.89 10.48 26.04 10.58 26.18 10.71 26.25 10.86 26.26 11.04 26.12 11.11 25.9 11.09 25.76 11.15 25.75 11.2 25.75 11.21 25.74 11.3 25.74 11.31 25.74 11.32 25.78 11.41 25.8 11.52 25.84 11.63 25.88 11.75 25.93 11.85 25.99 11.94 26.06 12.02 26.15 12.08 26.24 12.14 26.34 12.2 26.43 12.27 26.55 12.32 26.67 12.39 26.8 12.45 26.89 12.48 26.9 12.48 26.97 12.51 26.98 12.51 27.1 12.54 27.22 12.56 27.36 12.6 27.47 12.64 27.56 12.69 27.65 12.75 27.72 12.81 27.77 12.9 27.82 12.99 27.89 13.08 27.97 13.14 28.04 13.19 28.12 13.27 28.18 13.35 28.25 13.41 28.32 13.48 28.39 13.55 28.46 13.62 28.53 13.69 28.6 13.76 28.67 13.84 28.69 13.87 28.7 13.93 28.71 13.98 28.71 14.04 28.74 14.19 28.83 14.35 28.91 14.49 28.99 14.63 29.01 14.69 29.05 14.78 29.11 14.86 29.17 14.94 29.23 15.03 29.26 15.07 29.34 15.22 29.41 15.41 29.49 15.55 29.55 15.7 29.64 15.84 29.75 15.94 29.87 16.09 30.01 16.21 30.18 16.31 30.27 16.45 30.36 16.58 30.46 16.7 30.56 16.81 30.6 16.86 30.63 16.68 30.68 16.54 30.72 16.4 30.75 16.28 30.78 16.16 30.81 16.03 30.79 15.91 30.74 15.81 30.7 15.72 30.61 15.65 30.54 15.58 30.43 15.53 30.41 15.53 30.37 15.58 30.29 15.65 30.2 15.7 30.18 15.72 30.13 15.84 30.1 15.96 30.05 16.04 29.96 16.03 29.88 15.96 29.79 15.88 29.74 15.79 29.66 15.7 29.6 15.6 29.54 15.5 29.49 15.37 29.43 15.24 29.37 15.12 29.31 15.01 29.26 14.91 29.2 14.81 29.14 14.71 29.1 14.6 29.04 14.5 28.99 14.39 28.93 14.27 28.86 14.16 28.81 14.04 28.81 14.04 28.9 13.99 28.9 13.87 28.9 13.73 28.8 13.64 28.75 13.53 28.75 13.4 28.75 13.26 28.76 13.13 28.79 13.02 28.82 12.9 28.86 12.78 28.89 12.62 28.9 12.48 28.9 12.34 28.92 12.21 28.94 12.04 28.94 11.87 28.95 11.75 28.97 11.62 28.94 11.5 28.81 11.49 28.7 11.53 28.64 11.61 28.54 11.68 28.42 11.64 28.35 11.54 28.3 11.4 28.24 11.27 28.19 11.14 28.15 11.02 28.12 10.91 28.1 10.79 28.07 10.67 28.07 10.53 28.01 10.44 27.95 10.35 27.83 10.27 27.72 10.23 27.62 10.15 27.5 10.08 27.41 10.01 27.33 9.92 27.22 9.83 27.11 9.75 27.01 9.65 26.95 9.55 26.92 9.44 26.9 9.32 26.9 9.18 26.9 9.04 26.9 8.9 26.91 8.77 26.91 8.63 26.9 8.5 26.86 8.4 26.78 8.33 26.71 8.26 26.63 8.17 26.58 8.08 26.52 8 26.5 7.88 26.48 7.78"/>
      <polygon class="cls-78" points="27.37 10.91 27.31 10.71 27.31 10.54 27.27 10.42 27.25 10.29 27.22 10.12 27.23 10.09 27.26 10.23 27.3 10.36 27.33 10.48 27.36 10.61 27.42 10.72 27.49 10.64 27.55 10.54 27.61 10.42 27.67 10.34 27.74 10.27 27.85 10.3 27.91 10.36 27.8 10.46 27.72 10.56 27.65 10.65 27.59 10.74 27.55 10.85 27.55 10.99 27.57 11.13 27.6 11.25 27.66 11.37 27.71 11.5 27.76 11.61 27.83 11.72 27.9 11.84 27.97 11.97 28.02 12.1 28.1 12.22 28.19 12.38 28.27 12.52 28.32 12.66 28.39 12.77 28.43 12.66 28.45 12.5 28.49 12.33 28.53 12.14 28.57 11.98 28.65 11.84 28.68 11.83 28.65 11.99 28.63 12.16 28.62 12.19 28.59 12.36 28.56 12.49 28.52 12.61 28.5 12.73 28.49 12.85 28.51 12.95 28.55 13.05 28.59 13.16 28.65 13.26 28.7 13.34 28.77 13.41 28.83 13.49 28.88 13.61 28.89 13.74 28.92 13.87 28.9 13.98 28.83 14.01 28.77 13.91 28.73 13.78 28.67 13.64 28.62 13.49 28.55 13.34 28.46 13.2 28.37 13.05 28.29 12.91 28.19 12.76 28.13 12.64 28.07 12.53 27.93 12.43 27.78 12.34 27.62 12.26 27.45 12.17 27.32 12.1 27.17 12.03 27.13 12.01 27.17 12.02 27.34 12.09 27.49 12.14 27.64 12.17 27.75 12.19 27.85 12.24 27.85 12.12 27.77 11.99 27.71 11.86 27.6 11.68 27.55 11.54 27.47 11.38 27.42 11.27 27.36 11.17 27.31 11.08 27.2 10.99 27.05 10.9 26.86 10.81 26.77 10.74 26.96 10.8 27.13 10.86 27.27 10.9 27.37 10.91"/>
      <path class="cls-102" d="M27.22,24.99h-.01s.02.01.02.01h0ZM27.21,25h-.04s-.04.06-.04.06l-.08.13-.09.1-.08.12-.1.09-.09.11-.05.06.08.12.1-.1.12-.09.08-.12.05-.14.08-.17.07-.17ZM25.87,25.7v.21l.05.14.09.12.08.12.05.14.05.07.07-.15.05-.16.05-.14.09-.1-.05-.08-.13.06h-.2l-.12-.09-.09-.14Z"/>
      <polygon class="cls-96" points="32.03 16.13 32.02 16.14 31.99 16.22 31.96 16.29 31.93 16.35 31.89 16.42 31.85 16.49 31.8 16.54 31.73 16.58 31.64 16.6 31.54 16.61 31.54 16.63 31.71 16.74 31.91 16.7 32.04 16.55 32.05 16.36 32.05 16.35 32.05 16.16 32.03 16.13"/>
      <path class="cls-54" d="M5.19,25.39c.96-.76,1.86-1.49,2.57-3.34.41-1.05.53-2.34.55-3.16h-.33c-.54.55-1.25,1.41-1.68,2.35-.7,1.51-.84,3.21-1.02,3.64l-.1.17v.34Z"/>
      <path class="cls-70" d="M8.28,19.06s-.21.21-.51.78c-.31.6-.85,1.8-1.38,2.83-.44.87-.63,1.69-1.03,2.41l-.2.27.02.04c.96-.76,1.86-1.49,2.57-3.34.37-.98.51-2.14.54-2.96l-.02-.03Z"/>
      <path class="cls-92" d="M8.06,21.05c-.08.17-.22.48-.41.88-.26.56-.46,1.07-.95,1.8-.39.58-.63.77-.99,1.14l-.23.3c.85-.69,1.65-1.45,2.29-3.12.12-.32.22-.66.29-1"/>
      <path class="cls-87" d="M14.32,32.1c-1.01-.47-2.25-1.15-2.78-1.94l-.75-.09-.06.36s-1.2-.78-2.01-1.58c-.8-.8-.96-1.26-1.11-1.74-.19-.63-.16-.92-.19-1.32l-.24-.18-.21.3s-.51-.86-1.12-1.7c-.61-.85-.76-.68-1.33-1.67-.65-1.12-.96-1.54-1.31-2.77-.31-1.11-.32-2.06-.32-2.06l.16-.58-.12-.37h-.18c.05-.88.13-1.76.33-2.62.28-.12.54-.2.8-.24l.09-.25-.6.09.05-.15.12-.07v-.29s-.12-.01-.12-.01c.15-.5.34-1,.61-1.5l.8-.05.14-.28-.77.02s.02-.24.17-.57c.21-.47.19-.39.76-1.27.57-.88.74-1.31,1.47-2.3.73-.99,1.43-1.65,1.43-1.65l-.24-.21-.85.8v-.34h-.28c-.02.23-.02.47-.03.72-.28.36-.59.75-.84,1.16l-.09-.41-.25.16c-.02.22-.01.46.01.71-.69.91-1.11,1.83-1.64,2.74l-.14-.2-.22.18.03.44-.13-.15-.13.14.23.41c-.26.47-.43.94-.61,1.45l-.29-.43c-.13.23-.25.47-.29.77l.23.4s-.32,2.03-.43,2.79l-.1.29-.24-.04-.08.28-.14.29c.22.15.41.27.59.55.07.11.25.82.29,1.38.04.49.01.86.01.86.44.41.56,1.46,1.37,2.79.46.75.74,1.08,1.44,1.88.56.65.88,1.18,1.32,2.02.31.6.2.85.4,1.5.19.61.96,1.52.96,1.52l.22.17.37-.02c1.23.94,2.55,1.65,3.84,2.43l2.01-.53Z"/>
      <path class="cls-68" d="M7.57,2.43c.34-.25.41-.11.38.11-.08.59-.34,1.24-.55,1.83-.33.93-.88,1.69-1.34,2.52-.47.83-1.14,1.66-1.76,2.48-.4.53-.67,1-.95,1.49l.23.25.05.29-.21.21s-.28-.23-.31-.52c-.05-.45-.06-.72.08-1.27.12-.47.46-1.11.98-2.35.36-.85.84-1.77,1.27-2.53.31-.55,1.24-1.82,2.14-2.49"/>
      <polygon class="cls-6" points="3.61 11.46 3.46 11.43 3.44 11.55 3.45 11.68 3.45 11.83 3.54 11.87 3.64 11.81 3.7 11.74 3.73 11.65 3.63 11.6 3.61 11.46"/>
      <path class="cls-101" d="M5.5,5.87c-.81,1.3-1.58,2.63-2.28,3.99l.08.04c.66-1.29,1.39-2.54,2.15-3.78.59-.96,1.21-1.91,1.83-2.84-.37.36-1.35,1.9-1.79,2.6"/>
      <path class="cls-44" d="M7.76,5.41l-.85.79v-.12l-.3.36v.13c-.24.31-.51.65-.74,1l.05.11.66-.78s-.25.44-.51.82c-.26.38-.28.28-.53.7-.26.43-.5,1.01-.5,1.01l.16-.05c.48-.76.69-1.21,1.36-2.12.72-.99,1.43-1.64,1.43-1.64l-.23-.21ZM5.4,8.25c-.16.23-.32.45-.46.67l.51-.57-.05-.11ZM3.4,11.83c-.18.34-.32.69-.45,1.04,0,0,.12-.2.25-.44.13-.24.28-.53.28-.53l-.07-.08ZM1.58,17.38l-.09.16.36.28.11-.13-.18-.18-.2-.13ZM2.22,18.53c.06.24.12.55.15.83l.04-.08v-.29s-.14-.42-.14-.42l-.05-.04ZM2.95,21.41c.18.48.42,1.07.82,1.72.46.75.74,1.09,1.44,1.89.56.65.89,1.18,1.32,2.01.3.57.21.83.37,1.41h0s.55.43.55.43c0,0-.11-.62-.42-1.35-.31-.73-.42-.9-.83-1.56-.42-.66-.83-1.1-.83-1.1l-.04-.44-.46-.51.05-.29.18-.1h.13c-.22-.24-.41-.43-.74-1l-.22-.37-.34.86s-.11-.35-.29-.68c-.18-.33-.26-.42-.44-.65-.17-.23-.26-.26-.26-.26M7.87,29.91l-.06.05.07.09.22.17.37-.02c1.23.94,2.55,1.65,3.84,2.43l.32-.09c-1.5-.8-2.94-1.65-4.24-2.61l-.24.11-.28-.14Z"/>
      <path class="cls-101" d="M3.03,10.67c-.05-.45-.04-.33.11-.88.12-.48.45-1.12.98-2.36.36-.86.84-1.77,1.27-2.54.31-.56,1.25-1.82,2.15-2.5l.22-.13c-.81.68-1.68,1.72-2.29,2.68-.43.76-.9,1.68-1.26,2.53-.53,1.24-.86,1.88-.98,2.34"/>
      <path class="cls-41" d="M13.82.1l-.44.19c-.47.28-1.01.4-1.48.66-.32.17-.64.33-.92.57-.25.21-.54.38-.8.59-.36.28-.63.66-.93,1-.22.24-.43.48-.68.69-.26.21-.42.56-.74.71l-.51.59-.17.19-.09.06h-.02s-.03.04-.03.04h0s-.03.05-.03.05l-.07.1-.04.12-.05.15-.05.11.02.14.06.11.1-.02-.02-.05h0s-.04-.07-.04-.07l.03-.05h0s.04-.05.04-.05l.15-.09h0s.06-.02.06-.02l.25-.05.23-.05.18-.08.52-.25.26-.14.25-.15c.35-.13.65-.36.98-.53l.12-.09.37-.24.51-.31.45-.31.4-.28.05-.03.23-.17.05-.04.31-.24.05-.04.3-.25.11-.1.23-.2.33-.31.03-.02.13-.14.16-.17h-.14c-.81.23-1.66.65-2.4,1.03-.49.25-.78.51-1.26.78l-.51.36c-.48.34-.88.73-1.42.97.33-.35.75-.62,1.07-.98.49-.54,1.09-1.07,1.71-1.44.48-.29.96-.52,1.43-.85-.77.36-1.53.79-2.22,1.31-.42.31-.8.66-1.21.98.35-.27.57-.66.88-.96.81-.78,1.5-1.3,2.33-1.75.61-.33,1.35-.57,1.95-.99"/>
      <path class="cls-63" d="M4.12,10.88l-.17.27-.1.27-.08.14.09.05.2-.21.06-.51ZM3.59,11.98s-.44.87-.58,1.29c-.15.42,0,.39,0,.39l.06.1s-.09-.13.06-.57c.15-.43.55-1.17.55-1.17l-.07-.04ZM2.65,13.19h-.15s.21.43.21.43l.08.27-.03.16s-.2,1.27-.31,2c-.11.73-.13.92-.13.92h-.02s-.23.46-.23.46l.25.37.18.24.22-.27-.31-.2c-.06-.14.03-.15.07-.38.03-.23.03-.37.06-.55,0,0,.03-.56.13-1.19.09-.63.24-1.33.24-1.33l.12-.12v-.22s-.19-.31-.19-.31l-.19-.28ZM1.72,16.99l-.06.21.14.23h.17s-.01-.42-.01-.42h0s-.23-.02-.23-.02ZM2.83,18.32l-.11.04s.09.67.22,1.21c.13.54.3.93.3.93l.06-.07s-.19-.54-.3-1.07c-.12-.53-.17-1.04-.17-1.04M6.1,24.58l-.09.28c.15.16.32.4.5.63l.06-.21c-.13-.21-.29-.45-.47-.7M7.22,25.6h-.05l-.17.13-.03.1v.07s-.02-.01-.02-.01l-.06.18s.05.14.18.42c.14.28.21.34.35.71.14.37.2.74.2.74l.42.64-.21.3c.29.14.45.31.65.48l.26-.22s.19.19.66.55c.48.36,1.25.9,1.25.9l.06-.17-.03-.03c-.15-.1-1.2-.8-1.96-1.55-.8-.79-.96-1.27-1.11-1.74-.2-.63-.16-.92-.2-1.32l-.19-.18ZM8.37,29.48l-.28.37.04.15.27-.19s.19.08.47.24c.28.16.65.4.65.4l.03-.15s-.73-.38-1-.61l-.17-.2ZM11.08,29.97l-.29.1-.06.26.2.3.87.68,1.69,1.02.85-.23c-1.01-.47-2.25-1.16-2.78-1.94l-.46-.19Z"/>
      <path class="cls-63" d="M4.12,10.88l-.17.27-.1.27-.08.14.09.05.2-.21.06-.51ZM3.59,11.98s-.44.87-.58,1.29c-.15.42,0,.39,0,.39l.06.1s-.09-.13.06-.57c.15-.43.55-1.17.55-1.17l-.07-.04ZM2.65,13.19h-.15s.21.43.21.43l.08.27-.03.16s-.2,1.27-.31,2c-.11.73-.13.92-.13.92h-.02s-.23.46-.23.46l.25.37.18.24.22-.27-.31-.2c-.06-.14.03-.15.07-.38.03-.23.03-.37.06-.55,0,0,.03-.56.13-1.19.09-.63.24-1.33.24-1.33l.12-.12v-.22s-.19-.31-.19-.31l-.19-.28ZM1.72,16.99l-.06.21.14.23h.17s-.01-.42-.01-.42h0s-.23-.02-.23-.02ZM2.83,18.32l-.11.04s.09.67.22,1.21c.13.54.3.93.3.93l.06-.07s-.19-.54-.3-1.07c-.12-.53-.17-1.04-.17-1.04M6.1,24.58l-.09.28c.15.16.32.4.5.63l.06-.21c-.13-.21-.29-.45-.47-.7M7.22,25.6h-.05l-.17.13-.03.1v.07s-.02-.01-.02-.01l-.06.18s.05.14.18.42c.14.28.21.34.35.71.14.37.2.74.2.74l.42.64-.21.3c.29.14.45.31.65.48l.26-.22s.19.19.66.55c.48.36,1.25.9,1.25.9l.06-.17-.03-.03c-.15-.1-1.2-.8-1.96-1.55-.8-.79-.96-1.27-1.11-1.74-.2-.63-.16-.92-.2-1.32l-.19-.18ZM8.37,29.48l-.28.37.04.15.27-.19s.19.08.47.24c.28.16.65.4.65.4l.03-.15s-.73-.38-1-.61l-.17-.2ZM11.08,29.97l-.29.1-.06.26.2.3.85.67h0s.03.05.03.05l.09.03.14.08h-.01s-.02.1-.02.1h.19s.16.1.16.1h0s.04.05.04.05l.14.06h0l.94.57.85-.23c-1.01-.47-2.25-1.16-2.78-1.94l-.46-.19Z"/>
      <path class="cls-8" d="M5.66,7.4l-.16.09.05.29.03.33.25-.28-.05-.11h0s-.05-.11-.05-.11h0s-.06-.22-.06-.22ZM2.36,13.15l-.1.4.24.43-.07.15.14.12.22-.4-.42-.69h0ZM3.56,13.79l-.45.12-.02.21.44-.15.04-.18ZM2.93,16.84l-.11.09-.29.42.21.24.12-.03.15-.39v-.03s-.07-.26-.07-.26v-.03ZM2.2,17.74l.12.33.14.35.2.14v-.41s.15-.26.15-.26l-.04-.08-.12.17-.18.07-.26-.31ZM2.89,20.36l.07.37.27.68.17.34.13.06-.18-.49-.44-.96ZM7.88,28.6l-.04.15c.26.13.44.29.6.44l.13-.09c-.2-.19-.43-.36-.69-.5M7.68,28.81l-.24.04.47.19.2.23.11-.08-.16-.19-.38-.19ZM8.27,29.4l-.15.1-.32.27.1.17.36-.17.02-.36ZM11.5,30.35l-.31.32-.32-.19-.05.35s.21.17.45.29c.25.12.46.17.46.17l.37-.2-.46-.28-.14-.46Z"/>
      <polygon class="cls-44" points="11.06 30.67 11.05 30.95 11.37 31.03 11.51 30.98 11.49 30.87 11.29 30.79 11.25 30.66 11.06 30.67"/>
      <path class="cls-44" d="M7.76,5.41l-.85.79v-.12l-.3.36v.13c-.24.31-.51.65-.74,1l.05.11.66-.78s-.25.44-.51.82c-.26.38-.28.28-.53.7-.26.43-.5,1.01-.5,1.01l.16-.05c.48-.76.69-1.21,1.36-2.12.72-.99,1.43-1.64,1.43-1.64l-.23-.21ZM5.4,8.25l-.2.28h0l-.26.4h0c-.41.65-.73,1.3-1.1,1.94l.05.13.5-.88.95-1.56h-.05s.16-.19.16-.19l-.05-.11ZM3.21,11.3v.05s.23.41.23.41l-.04.07v.03s-.04.04-.04.04c-.16.32-.29.64-.42.97,0,0,.12-.2.25-.44.13-.23.26-.5.27-.52h0s.03-.03.03-.03l.03-.02.03-.03v-.04s-.02-.04-.02-.04v-.04s0-.05,0-.05v-.04s-.03-.03-.03-.03l-.02-.04-.03-.03-.03-.03-.03-.02-.03-.03-.03-.03-.03-.03-.03-.04-.03-.04h-.02ZM2.45,14.03c-.07.21-.29,1.97-.4,2.71l-.1.28.09.07.16-.36.09-.69.04-.96.23-.89-.12-.16ZM1.58,17.38l-.09.16.36.28.11-.13-.18-.18-.2-.13ZM2.22,18.53c.06.24.12.55.15.83v.13c.03.24.04.44.04.59l.17-.09-.12-.78h-.04s-.01-.22-.01-.22l-.13-.42-.05-.04ZM2.47,20.29l-.08.06c.22.2.36.58.55,1.06l.1.26c.17.43.38.92.72,1.46.46.75.74,1.09,1.44,1.89.56.65.89,1.18,1.32,2.01.3.57.21.83.37,1.41h0s.55.43.55.43c0,0-.11-.62-.42-1.35-.31-.73-.42-.9-.83-1.56-.42-.66-.83-1.1-.83-1.1l-.04-.44-.46-.51.05-.29.18-.1h.13c-.22-.24-.41-.43-.74-1l-.22-.37-.34.86s-.11-.35-.29-.68c-.18-.33-.26-.42-.44-.65l-.12-.14-.15-.46-.32-.71-.14-.06ZM7.87,29.91l-.06.05.07.09.22.17.37-.02c1.23.94,2.55,1.65,3.84,2.43l.32-.09c-1.5-.8-2.94-1.65-4.24-2.61l-.24.11-.28-.14Z"/>
      <path class="cls-56" d="M7.27,17.5c.16-.12.37-.25.35.12-.04.85-.08,2.01-.73,3.11-.65,1.09-1.26,1.46-2,2.73-.64,1.09-.6,1.35-.5,1.69l.22.18c.23.16.28.33.14.51-.37-.36-.84-.63-.93-.91-.2-.6.05-1.77.29-2.59.24-.81,1.1-2.44,1.54-3.12.45-.69,1.1-1.32,1.61-1.71"/>
      <path class="cls-76" d="M8.15,4.98c.23-.18.47-.35.7-.53.5-.4,1.05-.85,1.61-1.19.78-.47,1.56-.95,2.4-1.3.54-.22,1.11-.35,1.69-.48.2-.05.52-.07.36.21-.14.32-.34.6-.6.83-.26.24-.53.44-.82.63-.21.17-.45.29-.67.45-.33.19-.65.39-.99.57-.32.19-.66.32-.98.51-.27.13-.54.26-.79.4-.29.07-.55.21-.83.31-.28.05-.53.19-.82.21-.23.06-.8.21-.57-.23l.37-.44"/>
      <path class="cls-101" d="M8.67,5.3s1.09-.8,1.74-1.17c.42-.24,1.03-.61,1.63-.97.79-.48,1.65-1.17,1.65-1.17,0,0-.32.44-1.06,1.03-.44.35-1.23.8-1.97,1.2-.75.4-1.99,1.09-1.99,1.09"/>
      <polygon class="cls-25" points="9.04 4.25 8.91 4.31 8.79 4.4 8.78 4.41 8.69 4.45 8.6 4.56 8.49 4.66 8.38 4.75 8.27 4.86 8.17 4.95 8.06 5.05 8.03 5.08 8.01 5.11 8 5.11 8 5.11 7.89 5.18 7.76 5.33 7.67 5.46 7.55 5.59 7.45 5.71 7.33 5.88 7.22 6.05 7.15 6.16 7.08 6.3 6.98 6.42 6.89 6.58 6.78 6.74 6.68 6.88 6.6 7.03 6.51 7.16 6.42 7.3 6.34 7.42 6.24 7.55 6.12 7.72 6.01 7.89 5.92 8.06 5.82 8.19 5.72 8.31 5.62 8.45 5.52 8.61 5.45 8.74 5.37 8.91 5.27 9.11 5.16 9.3 5.1 9.48 5.06 9.64 5.06 9.83 4.97 9.96 4.89 10.13 4.8 10.32 4.69 10.54 4.64 10.7 4.58 10.93 4.55 11.13 4.54 11.31 4.46 11.43 4.3 11.46 4.17 11.53 4.25 11.65 4.42 11.61 4.6 11.56 4.77 11.48 4.97 11.4 5.16 11.28 5.41 11.15 5.66 11.01 5.84 10.87 6.01 10.67 6.18 10.46 6.35 10.25 6.52 10.03 6.7 9.81 6.86 9.57 7.11 9.28 7.24 9.05 7.33 8.91 7.34 8.89 7.46 8.71 7.62 8.54 7.76 8.36 7.88 8.19 7.93 8.13 8.05 8.01 8.13 7.87 8.2 7.75 8.2 7.75 8.22 7.73 8.26 7.65 8.27 7.65 8.28 7.61 8.38 7.48 8.45 7.35 8.55 7.22 8.64 7.06 8.73 6.93 8.82 6.79 8.89 6.65 8.94 6.5 8.99 6.36 9.05 6.23 9.12 6.1 9.13 6.07 9.15 6.05 9.16 6.03 9.16 6.02 9.21 5.86 9.25 5.71 9.3 5.56 9.33 5.39 9.37 5.24 9.38 5.05 9.41 4.88 9.42 4.7 9.4 4.57 9.38 4.48 9.33 4.32 9.25 4.26 9.04 4.25"/>
      <path class="cls-3" d="M14.54,1.48c-.58.13-1.14.26-1.68.48-.83.34-1.62.83-2.4,1.3l-.16.1-.08.05.05-.02c.97-.52,1.94-1.01,2.94-1.44.46-.2.9-.33,1.34-.46h-.01Z"/>
      <polygon class="cls-84" points="9.04 4.25 8.91 4.31 8.79 4.4 8.78 4.41 8.69 4.45 8.6 4.56 8.49 4.66 8.38 4.75 8.27 4.86 8.17 4.95 8.06 5.05 8.03 5.08 8.01 5.11 8 5.11 8 5.11 7.89 5.18 7.76 5.33 7.67 5.46 7.55 5.59 7.45 5.71 7.33 5.88 7.22 6.05 7.15 6.16 7.08 6.3 6.98 6.42 6.89 6.58 6.78 6.74 6.68 6.88 6.6 7.03 6.51 7.16 6.42 7.3 6.34 7.42 6.24 7.55 6.12 7.72 6.01 7.89 5.92 8.06 5.82 8.19 5.72 8.31 5.62 8.45 5.52 8.61 5.45 8.74 5.37 8.91 5.27 9.11 5.16 9.3 5.1 9.48 5.06 9.64 5.06 9.83 4.97 9.96 4.89 10.13 4.8 10.32 4.69 10.54 4.64 10.7 4.58 10.93 4.55 11.13 4.54 11.31 4.46 11.43 4.3 11.46 4.17 11.53 4.25 11.65 4.42 11.61 4.6 11.56 4.77 11.48 4.97 11.4 5.16 11.28 5.39 11.17 5.46 11.06 5.54 10.94 5.62 10.81 5.71 10.65 5.82 10.46 5.89 10.32 5.96 10.18 6.01 10.03 6.1 9.87 6.22 9.66 6.31 9.41 6.43 9.18 6.56 8.93 6.66 8.71 6.74 8.53 6.84 8.36 6.91 8.19 7 8.05 7.07 7.91 7.14 7.77 7.19 7.63 7.27 7.51 7.34 7.35 7.43 7.2 7.54 7.03 7.64 6.84 7.72 6.66 7.79 6.51 7.85 6.39 7.92 6.24 8 6.11 8.09 5.97 8.18 5.81 8.24 5.68 8.34 5.54 8.41 5.42 8.49 5.3 8.57 5.18 8.49 5.25 8.4 5.37 8.31 5.51 8.24 5.65 8.15 5.76 8.09 5.9 8 6.05 7.9 6.2 7.83 6.33 7.73 6.48 7.66 6.61 7.55 6.75 7.45 6.88 7.36 7 7.21 7.2 7.1 7.35 7 7.48 6.86 7.64 6.77 7.76 6.69 7.91 6.6 8.05 6.51 8.17 6.4 8.29 6.3 8.42 6.19 8.57 6.1 8.7 6.01 8.82 5.92 8.93 5.86 9.06 5.78 9.18 5.68 9.3 5.54 9.35 5.49 9.21 5.53 9.04 5.58 8.89 5.65 8.76 5.72 8.63 5.79 8.48 5.86 8.34 5.92 8.2 6 8.05 6.07 7.91 6.14 7.8 6.26 7.64 6.35 7.5 6.43 7.37 6.56 7.17 6.68 7 6.81 6.84 6.9 6.71 6.99 6.57 7.08 6.42 7.19 6.28 7.28 6.15 7.36 6.01 7.46 5.86 7.58 5.74 7.66 5.63 7.76 5.51 7.87 5.38 7.97 5.27 8.08 5.16 8.18 5.05 8.3 4.96 8.41 4.87 8.52 4.75 8.64 4.65 8.74 4.52 8.85 4.43 8.96 4.34 9.11 4.28 9.32 4.32 9.33 4.32 9.25 4.26 9.04 4.25"/>
      <path class="cls-69" d="M6.5,8.53c-.32.38-.62.79-.88,1.22-.29.49-.64.94-.88,1.46-.19.4-.41.78-.59,1.18-.15.32-.25.66-.39.99-.17.38-.31.78-.38,1.2-.09.51-.23,1.01-.32,1.52-.06.38-.15.77-.31,1.12-.25.18.15.39.14.09.23-.35.4-.76.69-1.07.27-.29.45-.63.68-.95.25-.35.47-.71.73-1.05.24-.31.47-.63.67-.97.18-.31.37-.6.55-.91.25-.44.55-.87.71-1.34.12-.36.21-.74.33-1.11.12-.37.41-.72.32-1.14-.05-.27.06-.79-.23-.83-.29-.04-.6.32-.82.59"/>
      <path class="cls-29" d="M7.26,7.94c-.27,0-.56.34-.76.59-.19.23-.38.47-.55.72l-.04.28-.25.43-.15.34.21-.12.23-.37.41-.46.32-.33-.29.4-.26.44-.09.31.19-.04.33-.44.28-.4.27-.35-.06.26-.2.53-.15.62.17-.15.19-.34.21-.34.21-.14.09-.59c-.05-.27.06-.79-.23-.83h-.06Z"/>
      <path class="cls-83" d="M7.26,7.94c-.28,0-.56.34-.76.59-.32.38-.62.79-.88,1.22-.29.49-.64.94-.88,1.46-.19.4-.42.78-.6,1.19l-.22.55v.03s-.05.12-.05.12v.04s-.11.24-.11.24h0s-.02.06-.02.06c-.09.23-.18.45-.25.69v.02s-.03.1-.03.1l-.02.07-.02.09v.02s-.04.15-.04.15l-.04.22-.12.57v.03c.13-.29.14-.59.21-.89.06-.44.27-.83.41-1.24.12-.35.31-.62.47-.95.11-.21.23-.55.35-.79.26-.52.58-.96.87-1.47.15-.27.32-.59.53-.82.2-.23.4-.44.62-.66.23-.22.47-.54.73-.62l-.07-.03h-.06ZM3.15,15.59l-.1.51h0s-.01.15-.01.15c.04-.22.1-.44.12-.66"/>
      <path class="cls-93" d="M29.62,27.81l-.08.03-.14.13-.43.41-.05.17.06.13.09.11.08.12.04.16v.19c0,.4-.02.79-.05,1.19v.2l-.02.18-.07.13-.1.12-.15.1c-.42.38-.92.77-1.41,1.11l-.13.12-.14.08-.09.06-.12.05-.15.06h-.19s-.19,0-.19,0h-.22s-.25,0-.25,0h-.45l-.22-.03-.19-.03h-.22s-.19-.04-.19-.04l-.21-.02-.19-.03-.24-.04-.21-.03-.25-.04-.24-.08-.23-.04-.2-.04-.29-.05-.2-.05-.18-.04-.21-.07-.22-.05-.22-.05-.25-.05-.21-.04-.27-.08-.32-.03-.26-.03h-1.15s-.21.01-.21.01h-.21l-.25-.02h-.22s0-.01,0-.01l-.06-.08-.14-.17-.1-.11-.12-.13-.13-.14-.16-.03-.15.08-.13.07-.13.06-.14.06-.24-.02h-.19s-.17.02-.17.02l-.13.06-.16.07-.14.07-.13.08-.08.05h-.03s-.08.06-.08.06l-.1.04-.08.04-.11.03h-.09s-.1.01-.1.01h-.26s-.14-.02-.14-.02h-.17s-.13,0-.13,0h-.6s-.11,0-.11,0h-.26s-.13,0-.13,0h-.11s-.1.02-.1.02l-.09.03-.07.02h-.05s0,.01,0,.01h-.04s0,.01,0,.01h-.04s-.09.04-.09.04l-.06.03-.06.02-.08.03c-.37.11-.99.28-1.77.41-1.31.23-1.16.24-3.08.37h0s-.3,0-.3,0l-.24-.04-.19-.11-.2-.13-.35-.22-.61-.44-.39-.3-.42-.29-.06-.14-.26-.22-.24-.22-.09-.24.11-.5.04-.09.17-.29.11-.18v-.24l.09-.19.02-.26-.11-.16-.11-.17-.19-.11h-.03s-.15.13-.15.13l-.08.2-.09.18-.11.17-.17.02c-.55,0-1.13,0-1.66,0h-.26s-.22.01-.22.01l-.13.26-.17.49c-.09.3-.28.6-.39.88-.15.34-.31.65-.51.96l-.09.19.05.2.09.18.11.2.13.2.15.19.15.2.13.19.15.13.22.11.24.13.04.02c1.15.55,3.01,1.83,3.95,2.38l.28.13.22.13.18.13.22.06.26.02c.31,0,.67-.04.98-.06h.26s.16-.02.16-.02h.22s.22-.03.22-.03h.23s.19-.03.19-.03h.2s.21-.03.21-.03l.19-.03.21-.02.19-.03.19-.04.14-.02.14-.02.14-.02.12-.03.16-.03.13-.02.11-.02.13-.03.12-.03.13-.02.16-.05.16-.04.12-.04.13-.03.14-.03h.03s.12-.08.12-.08h.01s0-.01,0-.01h0s.1-.03.1-.03l.16-.05.21-.03.21-.04.17-.05.18-.06.26-.05.24-.06.18-.07.26-.04.21-.04.28-.07.25-.06.22-.05.05-.02.16.09.16.05.16.07.13.06.16.09.15.07.17.08.15.06.13.07h.18s.1-.1.1-.1l.13-.07.14-.08.15-.07.14-.09.12-.09.15-.09.15-.08.09-.07.1.02.18.04.17.05.21.07.2.08.18.05.18.08.2.05.19.05.18.06.21.07.18.05.21.04.26.02.26.05.25.02.2.06.19.02.2.07.27.06.25.03.23.05.24.04h.05s.22.06.22.06l.26.03h.26s.22.04.22.04l.24.03h.21l.22.04.22.04h.47s.24.01.24.01h1.61s.2-.01.2-.01l.16-.05.12-.08c1.38-.8,2.91-1.84,4.11-2.69l.15-.08.18-.08.13-.07.15-.09.11-.12.1-.1.5-.56.09-.14.13-.14.09-.12v-.15s-.08-.17-.08-.17l-.11-.19c-.22-.45-.49-.88-.74-1.31l-.08-.18-.07-.13-.07-.16v-.17l.03-.17v-.18s-.11-.12-.11-.12l-.12-.08h-.2s-.3,0-.3,0h-.25c-.31.02-.63.02-.94.02h-.43l-.15-.05-.04-.17v-.18s-.02-.18-.02-.18l-.04-.16-.08-.12-.09-.06Z"/>
      <path class="cls-16" d="M1.85,29.06l-.05.25.17.11c.14.06.45.15.68.23l.4.2c.59.42,1.19.8,1.78,1.23l.13.13-.06-.22-.07-.2-.07-.2-.02-.26-.05-.24v-.56l.05-.22.04-.24.08-.24-.02-.06-.11.17-.18.09h-2.29l-.39.02Z"/>
      <polygon class="cls-47" points="12.28 32.63 12.45 32.81 12.87 34.53 12.8 34.77 13.39 34.63 13.22 34.45 12.79 32.72 12.87 32.48 12.75 32.52 12.4 32.6 12.28 32.63"/>
      <polygon class="cls-47" points="20.08 32.31 20.16 32.54 19.79 34.28 19.62 34.46 20.22 34.59 20.14 34.36 20.51 32.61 20.67 32.43 20.55 32.41 20.2 32.33 20.08 32.31"/>
      <polygon class="cls-47" points="26.35 33.2 26.48 33.41 26.5 35.19 26.37 35.4 26.98 35.4 26.85 35.19 26.84 33.4 26.96 33.2 26.84 33.2 26.48 33.2 26.35 33.2"/>
      <path class="cls-47" d="M3.49,31.03v.25s-.98,1.49-.98,1.49l-.22.11c.37.24.75.48,1.12.73l.33-.27h-.35s-.35-.22-.59-.37l.43-.65.29.19.12.25.26-.4h-.28s-.29-.2-.29-.2l.44-.69c.24.16.55.36.55.36l.16.34.08-.43-1.09-.71Z"/>
      <path class="cls-47" d="M4.9,31.96v.25s-.97,1.49-.97,1.49l-.22.11.51.33v-.24s.41-.63.41-.63l.2.13c.29.19.67.1.86-.19.19-.29.1-.67-.19-.86l-.1-.06-.11-.07-.2-.13-.1-.06-.11-.07ZM5.2,32.39l.08.05.13.58-.58.13-.07-.05.45-.71Z"/>
      <polygon class="cls-47" points="6.49 32.97 6.32 33.18 6.33 34.46 7.17 33.43 7.08 33.24 7.69 33.27 7.42 33.53 5.94 35.3 5.98 33.07 5.89 32.64 6.49 32.97"/>
      <path class="cls-47" d="M11.42,32.83l-.12.03-.34.07-.13.02.17.18.36,1.74-.08.24.2-.04.24-.05.15-.03c.33-.07.72-.15.72-.15l.05-.42-.24.26s-.41.08-.68.14h0s-.36-1.76-.36-1.76l.08-.23Z"/>
      <path class="cls-47" d="M25.37,33.15h-.13s-.35-.04-.35-.04h-.13s.11.21.11.21l-.16,1.76-.15.2.21.02.24.02h.16c.33.05.73.08.73.08l.17-.39-.3.17s-.41-.04-.69-.06h0s.16-1.79.16-1.79l.14-.2Z"/>
      <path class="cls-47" d="M20.97,32.48l-.24.36.35-.14.48.09h0s-.33,1.76-.33,1.76l-.16.19.59.11-.09-.23.34-1.75h0s.48.09.48.09l.28.25-.09-.43c-.54-.1-1.08-.2-1.62-.31"/>
      <path class="cls-47" d="M23.58,32.96l-1.12,1.79-.25.2.5.07-.02-.24.32-.55.66.11.16.56-.14.24.7.1-.19-.26-.62-2.02ZM23.44,33.51l.18.63-.5-.07.32-.56Z"/>
      <path class="cls-47" d="M27.43,32.95l.42,2.07-.05.32.41-.29-.18-.16-.15-.61.56-.38.5.29.06.27.57-.41-.31-.06-1.84-1.04ZM27.7,33.45l.56.33-.42.29-.15-.62Z"/>
      <path class="cls-47" d="M31,30.48l.35,2.08-.06.32.42-.27-.17-.17-.13-.62.57-.36.49.31.06.27.59-.39-.31-.07-1.81-1.1ZM31.25,30.98l.55.35-.42.28-.13-.63Z"/>
      <polygon class="cls-47" points="28.48 32.2 28.7 32.3 29.71 33.77 29.72 34.02 30.12 33.74 29.89 33.64 29.1 32.48 31.02 33.12 31.09 33.08 29.96 31.43 29.95 31.19 29.55 31.46 29.78 31.56 30.41 32.48 28.81 31.97 28.48 32.2"/>
      <path class="cls-47" d="M14.18,32.2c-.63.11-1.04.71-.94,1.33.11.62.71,1.04,1.33.94.35-.06.63-.27.8-.55v-.1l-.14-.05c-.11.24-.31.41-.57.46-.45.08-.88-.27-.97-.78-.09-.51.2-.98.65-1.06.23-.04.46.03.64.18l-.02-.4-.24.07-.55-.04Z"/>
      <polygon class="cls-16" points="15.28 31.74 15.49 31.62 15.62 31.54 15.78 31.51 15.95 31.48 16.13 31.49 16.33 31.49 16.51 31.51 16.72 31.51 16.87 31.54 16.91 31.7 16.98 31.85 17.06 31.96 17.14 32.09 17.2 32.25 17.27 32.39 17.33 32.55 17.4 32.71 17.49 32.88 17.57 33.03 17.62 33.19 17.68 33.33 17.76 33.5 17.79 33.67 17.84 33.84 17.8 34 17.68 34.09 17.57 34.18 17.54 34.33 17.46 34.44 17.36 34.55 17.21 34.61 17.08 34.68 16.93 34.72 16.74 34.74 16.81 34.83 16.98 34.89 17.15 34.93 17.31 34.87 17.42 34.78 17.57 34.7 17.74 34.6 17.85 34.5 18.01 34.43 18.17 34.38 18.33 34.35 18.37 34.2 18.47 34.03 18.54 33.87 18.61 33.71 18.7 33.57 18.9 33.56 19.11 33.56 19.24 33.49 19.28 33.25 19.22 33.11 19.16 32.97 19.07 32.84 18.98 32.71 18.9 32.58 18.8 32.46 18.71 32.33 18.6 32.2 18.51 32.08 18.4 31.96 18.27 31.87 18.19 31.74 18.09 31.62 17.97 31.54 18.04 31.58 18.2 31.68 18.35 31.75 18.49 31.83 18.6 31.96 18.73 32.05 18.85 32.17 18.95 32.29 19.07 32.42 19.17 32.54 19.28 32.63 19.38 32.72 19.49 32.84 19.55 32.97 19.56 33.16 19.54 33.38 19.54 33.62 19.52 33.81 19.46 33.95 19.29 34.04 19.15 34.13 18.98 34.25 18.86 34.36 18.7 34.46 18.57 34.55 18.43 34.63 18.27 34.7 18.1 34.78 17.97 34.85 17.84 34.93 17.68 35.02 17.55 35.13 17.42 35.23 17.25 35.32 17.12 35.38 16.94 35.37 16.8 35.32 16.64 35.23 16.52 35.15 16.41 35.07 16.27 34.99 16.12 34.93 16.09 34.83 16.19 34.74 16.31 34.66 16.44 34.6 16.58 34.52 16.71 34.46 16.86 34.42 17.04 34.4 17.15 34.31 17.25 34.21 17.33 34.09 17.4 33.95 17.41 33.77 17.4 33.58 17.33 33.4 17.28 33.25 17.21 33.08 17.14 32.86 17.03 32.69 16.99 32.52 16.97 32.34 16.9 32.17 16.82 32.02 16.77 31.87 16.68 31.77 16.47 31.69 16.3 31.65 16.12 31.61 15.93 31.6 15.74 31.6 15.59 31.65 15.46 31.71 15.28 31.74"/>
      <path class="cls-47" d="M16.07,32.08l-.56,2.04-.19.26.5-.07-.09-.23.15-.61.67-.09.31.49-.06.27.69-.1-.25-.2-1.17-1.76ZM16.08,32.65l.35.55-.5.07.15-.62Z"/>
      <polygon class="cls-16" points="4.07 28.09 4.05 28.37 4.03 28.63 4.09 28.85 4.35 28.87 4.59 28.79 4.72 28.65 4.64 28.44 4.53 28.28 4.39 28.15 4.22 28.04 4.07 28.09"/>
      <path class="cls-16" d="M29.62,27.81l-.08.02-.12.1.17-.1.03-.02h0ZM29.76,27.95l-.12.06-.12.09-.13.09-.09.1-.07.13.04.13.11.09.23.08h.31l-.08-.21v-.18s-.02-.18-.02-.18l-.04-.16-.02-.05ZM29.18,28.14l-.22.23-.03.1v.15s.04.05.04.05l.09.11.08.12.04.16v.19c0,.4-.02.79-.05,1.19v.19l-.02.18-.07.13h0s.43-.38.43-.38l.42-.25c.28-.19.5-.31.76-.48l.13-.06.13-.08.14-.07.13-.07.12-.08.13-.07.13-.07.13-.06.13-.07.13-.07.13-.07-.05-.12h-.18s-.19,0-.19,0h-.58s-.25-.01-.25-.01h-.81s-.22-.01-.22-.01h-.21l-.18-.03-.15-.05-.09-.1-.09-.11-.08-.17.04-.12.07-.12.07-.1Z"/>
      <path class="cls-47" d="M7.74,33.28l.13.21v1.77l-.13.21h.93c.34,0,.62-.28.62-.62,0-.27-.17-.5-.42-.59l.18-.41c0-.34-.28-.58-.62-.58h-.7ZM8.22,33.48h.06c.23,0,.42.15.42.38s-.19.38-.42.38h-.06v-.76ZM8.22,34.44h.3c.23,0,.42.19.42.42s-.19.42-.42.42h-.3v-.84Z"/>
      <path class="cls-22" d="M17.5,30.99h-.04s-.15.09-.15.09l-.13.07-.13.06-.07.04h.03s.17-.08.17-.08l.15-.08h.2l.15.07.13.11.09.15.08.12.16.13.12.1h.18s.18,0,.18,0h.39s.18-.03.18-.03l.15-.05h-.29s-.21.01-.21.01h-.21l-.25-.03h-.22s0-.01,0-.01l-.06-.08-.14-.17-.1-.11-.12-.13-.13-.14-.12-.04ZM16.48,31.24l-.17.03-.13.06-.16.06-.14.07-.13.08-.06.04.12-.04.17-.05.13-.08.17-.08.15-.06h.37-.12s-.2-.03-.2-.03ZM16.7,34.43h-.02s-.15.07-.15.07l-.16.07-.17.04-.2.06-.25.05h-.1s-.06.03-.06.03l.31.14.16.07.13.06.16.09.15.07.17.08.15.06.13.07h.18s.1-.1.1-.1l.13-.07.15-.08.14-.07.14-.09.12-.09.09-.06h-.03s-.13.09-.13.09l-.14.07-.13.08-.15.07-.14.09-.13.07-.17.04-.16-.04-.14-.07-.13-.08-.1-.09-.13-.07-.16-.09.08-.09.13-.09.12-.09.17-.1.08-.09ZM18.62,34.66l-.17.03.12.03.17.05.19.06-.05-.02-.13-.08-.13-.07ZM19.12,34.9h.03s.09.04.09.04h-.03s-.09-.04-.09-.04ZM20.02,35.19l.06.02.21.07.18.05.21.04.2.02-.08-.02-.18-.07-.2-.05-.19-.02-.21-.04Z"/>
      <path class="cls-47" d="M9.36,33.16l.14.2.09,1.77-.12.22c.31-.02.62-.03.93-.05.34-.02.61-.31.59-.65-.01-.27-.2-.49-.44-.56l.16-.43c-.02-.34-.31-.56-.65-.55l-.7.04ZM9.85,33.34h.06c.23-.01.43.12.44.35,0,.23-.17.39-.4.4h-.06s-.04-.75-.04-.75ZM9.9,34.29h.3c.23-.03.43.15.44.38.01.23-.17.43-.4.44h-.3s-.04-.82-.04-.82Z"/>
      <path class="cls-67" d="M4.67,24.4c-.06.22-.09.44-.08.68l-.17.05-.09.02v.19l.04.16.12.11.16.09.1.1.05.19c.09.27.18.52.32.77l.08.17.1.13.09.13-.02.13h-.2s-.02.09-.02.09v.17l-.06.09.17.08.16.07.19.23c.46.66,1.07,1.23,1.8,1.58l.16.08.16.08.03.02h0s.03,0,.03,0h.09s.08-.05.08-.05l.07-.05.06-.05.05-.06.02-.07v-.09s.01-.1.01-.1v-.08s-.04-.07-.04-.07l-.03-.07v-.02s-.06-.06-.06-.06l-.12-.1-.14-.07c-.53-.2-1.12-.52-1.42-1.01l-.09-.12-.07-.13-.02-.17.02-.17-.08-.13-.17.05v-.18s-.11-.13-.11-.13h-.19s-.08-.13-.08-.13l-.05-.14c-.14-.26-.23-.49-.31-.77l-.04-.24.03-.14.06-.13.08-.12.02-.04-.15-.18c-.21-.24-.38-.44-.53-.62"/>
      <path class="cls-65" d="M4.61,24.74l-.02.27.12.06h.09s-.01-.14-.01-.14l-.05-.09-.11-.08-.02-.03ZM4.32,25.19v.17s.04.16.04.16l.12.11.16.09.1.1.05.19c.09.27.18.52.32.77l.08.17.1.13.09.13.02.08h.06s.08-.05.08-.05l-.03-.08-.05-.07-.07-.07-.06-.07-.05-.08-.05-.07-.05-.1-.05-.09-.05-.13-.04-.1-.06-.11-.04-.08-.04-.11-.04-.1-.05-.09-.03-.09-.03-.08-.03-.08-.06-.05h0s-.08-.06-.08-.06l-.09-.07-.03-.08-.03-.08-.05-.06-.07-.08ZM5.15,25.26l-.06.03-.02.12.08.12h.02s.02-.05.02-.05l.07-.13.04-.07-.11-.02h-.03ZM6.17,27.2l-.08.03-.09.03-.04.07.07.08.14.06h0s.02-.18.02-.18l-.02-.1ZM5.14,27.64l-.05.06.17.08.16.07.19.23c.46.66,1.07,1.23,1.8,1.58l.16.08.16.08.03.02h0s.03,0,.03,0h.09s.08-.05.08-.05l.06-.05.06-.04.04-.05h-.07s-.07.03-.07.03h-.09s-.09,0-.09,0l-.09-.04-.12-.06-.13-.07-.12-.07-.11-.06-.09-.06-.11-.06-.09-.06-.06-.05-.12-.06-.07-.06-.05-.07-.08-.08-.09-.05-.12-.08-.07-.07-.08-.07-.08-.07-.06-.07-.07-.07-.06-.07-.05-.07-.05-.07-.05-.07-.05-.06-.05-.06-.05-.07-.05-.06-.06-.06h-.08s-.09-.02-.09-.02l-.07-.04-.05-.04-.08-.05h0Z"/>
      <polygon class="cls-8" points="5.9 26.96 5.86 27 5.81 27.05 5.86 27.12 5.93 27.11 5.93 27.04 5.9 26.96"/>
      <polygon class="cls-55" points="5.09 25.05 4.97 25.15 4.9 25.24 4.85 25.34 4.85 25.42 4.91 25.51 4.97 25.61 5.02 25.67 5.09 25.69 5.13 25.64 5.14 25.54 5.14 25.43 5.15 25.29 5.17 25.17 5.16 25.09 5.09 25.05"/>
      <polygon class="cls-55" points="6.75 28.42 6.84 28.53 7.02 28.62 7.13 28.67 7.25 28.72 7.34 28.79 7.47 28.86 7.59 28.92 7.72 28.99 7.82 29.04 7.92 29.09 7.97 29.16 8.03 29.26 8.07 29.37 8.07 29.46 7.98 29.5 7.85 29.42 7.73 29.33 7.6 29.22 7.41 29.11 7.25 29 7.06 28.87 6.93 28.76 6.8 28.65 6.72 28.55 6.69 28.48 6.75 28.42"/>
      <path class="cls-12" d="M.2,17.55c-.32.1-.13.57-.17.83-.06.4-.03.82-.03,1.22,0,.37,0,.75.11,1.14.12.45.28.9.45,1.32.17.41.32.83.54,1.21.23.39.5.69.75,1.08.23.36.5.75.77,1.07.28.34.59.64.89.95.31.32.61.65,1.01.89.24.28.75.69,1.08.41-.16-.38-.81-.31-.88-.81-.18-.35-.41-.66-.5-1.05-.21-.43-.44-.85-.57-1.3-.1-.36-.03-.77-.21-1.12-.41-1.1-.87-2.2-1.4-3.25-.35-.7-.84-1.34-1.24-2.03-.14-.23-.31-.55-.61-.56"/>
      <path class="cls-72" d="M.28,17.93s-.04.1.02.35c.06.26-.02-.15.22.67.25.82.56,1.92.76,2.62.2.71.02.06.05.2.03.14-.02.04.08.3.1.26.04.16.3.74.26.58.59,1.15.75,1.58.17.43-.13.03-.09.16.04.13.11.13.25.35s.3.55.3.55c0,0-.19-.12-.46-.44-.27-.33-.31-.39-.6-.79-.29-.4-.23-.26-.55-.81-.32-.55-.44-.82-.73-1.46-.29-.64-.41-1.1-.41-1.1l-.02.05.04.09.04.2.05.15.05.16.04.17.06.15.05.14.08.15.08.15.04.15.06.13.07.13.05.15v.07s.01,0,.01,0l.04.07.29.5.34.47.29.5.34.44.33.41h0s.11.15.11.15l.09.11.13.1.08.12.09.11.09.1.15.09.1.09.08.12.08.12.12.12.13.08.12.11.08.12.12.09.09.12.13.09.11.09.12.08.11.09.11.1.09.11.03.02.48.16-.12-.08c-.15-.1-.23-.12-.47-.34-.25-.22-.1-.03-.51-.55-.41-.52-.69-.81-1.14-1.53-.45-.72-.3-.45-.72-1.33s-.55-1.1-.95-2.18c-.4-1.08-.37-1.26-.65-2.21-.29-.95-.49-1.6-.49-1.6"/>
      <path class="cls-20" d="M7.51,17.37l-.24.13c-.51.39-1.16,1.02-1.61,1.71-.36.56-1.01,1.78-1.36,2.64.29-.26.7-.63.7-.63v.54s-.25.25-.42.68c-.26.67-.48,1.38-.56,2.17.28-.7.41-1.42.72-2.13.16-.39.32-.43.32-.43,0,0,.04.28.13.5l.13.25c.56-.78,1.04-1.19,1.57-2.06.66-1.1.69-2.26.73-3.11l-.11-.24Z"/>
      <path class="cls-98" d="M7.51,17.37l-.24.13c-.51.39-1.16,1.02-1.61,1.71-.35.55-.98,1.72-1.34,2.58h.04s.34-.35.61-.86c.28-.51.33-.69.68-1.27.35-.58.64-.95.73-1.04.09-.09.62-.67.9-.92.28-.26.34-.11.34-.11l-.11-.22Z"/>
      <path class="cls-97" d="M4.65,21.11s-.11.18-.24.45v.03c-.14.28-.24.53-.3.73-.15.5-.3,1.14-.35,1.69v.2c.04.24.04.44.1.61l.15.36c.18.18.44.37.68.59l.05-.12-.53-.4-.2-.38c-.08-.21-.11-.39-.16-.67-.05-.28,0-.7.05-.99.06-.31.21-.76.34-1.03.14-.28.59-1.02.59-1.02l-.2-.05Z"/>
      <path class="cls-45" d="M6.4,16.69c-.16,0-.5.9-.59,1.29-.27,1.14-.41,1.81-.41,3.3,0,1.9.05,2.88.35,4.27.15.69.34,1.03.35,1.37l-.03.39.21.16s.17-1.3.52-2.95c.21-.96.55-1.83.55-3.79s-.45-4.05-.97-4.05"/>
      <path class="cls-60" d="M6.31,19.64c-.08.78-.12,2.63-.24,4.03-.11,1.47,0,1.84,0,1.84l-.38-.36v.05s.07.35.07.35c.15.69.34,1.03.35,1.37l-.05.3.12.22c.15,0,.21-.29.3-1.21-.15-.42-.27-.97-.23-1.72.08-1.93.05-4.88.05-4.88"/>
      <path class="cls-17" d="M6.4,16.69c-.16,0-.5.9-.59,1.3-.27,1.14-.4,1.81-.4,3.3,0,1.9.05,2.88.35,4.27h0s.09.04.09.04c0,0-.2-.49-.28-1.73-.07-1.23-.13-1.65-.03-3.2.11-1.55.23-2.01.46-3.01.22-.99.43-.96.43-.96h-.01s-.02-.01-.02-.01Z"/>
      <path class="cls-48" d="M3.22,6.37c.27-.32.67-.4.68.1.03,1.59-.53,3.25-.94,4.91-.61,2.52-1.28,4.51-1.38,5.2-.04.29-.07.5.02.7l.34.1.1.31-.34.08c-.55-.64-.85-1.26-.91-1.96-.13-1.4-.15-3.25-.03-3.99.21-1.29.94-3.63,2.46-5.46"/>
      <path class="cls-51" d="M3.76,6.14c-.1.12-.29.38-.54.96-.38.89-.56,1.34-.89,2.3-.33.97-.47,1.59-.75,2.66-.28,1.08-.33,1.9-.44,2.53-.12.66-.11.93-.11,1.36,0,.4.03.68.16.99.17.41.47.68.47.68l.38.03-.09-.27-.34-.11c-.09-.2-.07-.41-.03-.7.1-.69.77-2.68,1.38-5.2.41-1.66.97-3.32.94-4.91l-.14-.33Z"/>
      <path class="cls-7" d="M1.82,8.6c-.59,1.23-.92,2.43-1.05,3.23-.13.75-.1,2.6.02,3.99.06.7.37,1.32.91,1.96l.08-.02-.11-.27s-.26-.2-.38-.67c-.12-.47-.16-.77-.12-1.21.1-.96.18-1.52.36-2.72.18-1.19.37-2.06.37-2.06,0,0-.41,1.46-.63,2.82-.22,1.37-.24,2.64-.24,2.64,0,0-.12-.48-.18-1.25-.06-.78-.11-.99-.08-1.85.03-.87-.01-.65.21-1.62.22-.97.47-1.49.68-2.27.1-.37.13-.58.14-.7"/>
      <path class="cls-24" d="M7.41,9.35c-.44.86-.6,1.85-1.11,2.68-.37.6-.7,1.25-1.17,1.78.2-.48.58-1.11.84-1.64-.48.69-.97,1.54-1.35,2.38-.31.55-.68,1.05-1.02,1.57-.15.23-.35.43-.43.7l.4-.58c.27-.29.46-.63.68-.95.25-.35.47-.71.73-1.05.24-.31.47-.63.67-.97.17-.31.37-.6.55-.91.25-.44.55-.87.71-1.34.12-.36.2-.74.33-1.11l.21-.48-.03-.08Z"/>
      <path class="cls-47" d="M1.9,30.01v.25s-.95,1.5-.95,1.5l-.22.11.52.32v-.24s.41-.64.41-.64l.2.13.04.02c-.17.86.13,1.29.32,1.43l.04-.1c-.16-.36-.21-.79-.1-1.26l.56-.29c.18-.29.09-.68-.2-.86l-.1-.06-.11-.07-.2-.13-.1-.06-.11-.07ZM2.2,30.43l.08.05.14.58-.58.14-.07-.05.44-.71Z"/>
      <polygon class="cls-35" points="24.91 4.5 24.85 4.56 24.69 4.65 24.56 4.74 24.48 4.88 24.51 5.07 24.54 5.24 24.62 5.36 24.67 5.42 24.68 5.42 24.81 5.46 25.08 5.5 25.12 5.5 25.34 5.52 25.62 5.52 25.85 5.52 26.07 5.52 26.32 5.52 26.19 5.46 25.96 5.38 25.69 5.19 25.64 5.16 25.39 4.97 25.1 4.75 24.91 4.5"/>
      <polygon class="cls-36" points="3.6 11.46 3.55 11.41 3.47 11.41 3.43 11.44 3.43 11.52 3.45 11.57 3.53 11.57 3.6 11.56 3.61 11.5 3.6 11.46"/>
      <polygon class="cls-39" points="2.36 13.61 2.5 13.84 2.54 13.93 2.56 14.01 2.56 14.1 2.53 14.18 2.45 14.1 2.46 13.99 2.44 13.91 2.39 13.85 2.31 13.7 2.36 13.61"/>
    </g>
  </g>
</svg>